<?xml version="1.0" encoding="UTF-8" standalone="no"?>
<svg width="350px" height="330px" viewBox="0 0 350 330" version="1.1" xmlns="http://www.w3.org/2000/svg" xmlns:xlink="http://www.w3.org/1999/xlink" xmlns:sketch="http://www.bohemiancoding.com/sketch/ns">
    <!-- Generator: Sketch 3.0.2 (7799) - http://www.bohemiancoding.com/sketch -->
    <title>logo_open_beacon_credentials</title>
    <description>Created with Sketch.</description>
    <defs></defs>
    <g id="Page-1" stroke="none" stroke-width="1" fill="none" fill-rule="evenodd" sketch:type="MSPage">
        <g id="logo_open_beacon_credentials" sketch:type="MSArtboardGroup">
            <g id="Group" sketch:type="MSLayerGroup" transform="translate(53.000000, 46.000000)">
                <path d="M3.45,71.404 L6.45,71.404 C6.452,53.464 13.713,37.251 25.467,25.492 C37.226,13.738 53.439,6.477 71.379,6.476 C89.319,6.477 105.532,13.738 117.292,25.492 C129.047,37.251 136.308,53.464 136.31,71.404 C136.308,89.345 129.047,105.558 117.292,117.318 C105.532,129.072 89.319,136.333 71.379,136.335 C53.439,136.333 37.226,129.072 25.467,117.318 C13.713,105.558 6.452,89.345 6.45,71.404 L0.45,71.404 C0.449,90.982 8.393,108.734 21.224,121.56 C34.05,134.391 51.801,142.336 71.379,142.335 C90.956,142.336 108.708,134.392 121.535,121.56 C134.366,108.734 142.311,90.982 142.309,71.404 C142.311,51.827 134.366,34.075 121.535,21.25 C108.708,8.419 90.956,0.474 71.379,0.476 C51.801,0.474 34.05,8.419 21.224,21.25 C8.393,34.075 0.449,51.826 0.45,71.404 L3.45,71.404" id="Fill-15" fill="#C6C6C6" sketch:type="MSShapeGroup"></path>
                <path d="M15.949,71.404 L18.949,71.404 C18.951,56.917 24.813,43.829 34.305,34.332 C43.803,24.839 56.891,18.977 71.379,18.976 C85.867,18.977 98.955,24.839 108.452,34.332 C117.945,43.829 123.807,56.917 123.809,71.404 C123.807,85.892 117.945,98.98 108.452,108.477 C98.955,117.97 85.867,123.831 71.379,123.833 C56.891,123.831 43.802,117.97 34.305,108.477 C24.813,98.98 18.951,85.892 18.949,71.404 L12.949,71.404 C12.948,87.53 19.494,102.156 30.063,112.72 C40.627,123.289 55.253,129.834 71.379,129.833 C87.504,129.834 102.131,123.289 112.695,112.72 C123.264,102.156 129.81,87.53 129.808,71.404 C129.81,55.279 123.264,40.653 112.695,30.089 C102.131,19.52 87.505,12.974 71.379,12.976 C55.253,12.974 40.627,19.52 30.063,30.089 C19.494,40.653 12.948,55.279 12.949,71.404 L15.949,71.404" id="Fill-16" fill="#C6C6C6" sketch:type="MSShapeGroup"></path>
                <path d="M45.775,71.404 C45.775,57.264 57.237,45.801 71.379,45.801 C85.52,45.801 96.984,57.264 96.984,71.404 C96.984,85.546 85.52,97.009 71.379,97.009 C57.237,97.009 45.775,85.546 45.775,71.404" id="Fill-17" fill="#878787" sketch:type="MSShapeGroup"></path>
                <path d="M29.822,71.404 L32.822,71.404 C32.824,60.748 37.133,51.127 44.115,44.141 C51.102,37.159 60.722,32.849 71.379,32.848 C82.035,32.849 91.656,37.159 98.642,44.141 C105.625,51.127 109.934,60.748 109.936,71.404 C109.934,82.061 105.625,91.681 98.643,98.667 C91.656,105.649 82.036,109.958 71.379,109.96 C60.722,109.958 51.102,105.649 44.115,98.667 C37.133,91.681 32.824,82.061 32.822,71.404 L26.822,71.404 C26.821,83.699 31.814,94.857 39.873,102.91 C47.926,110.968 59.084,115.961 71.379,115.96 C83.673,115.961 94.832,110.968 102.885,102.91 C110.944,94.857 115.937,83.699 115.935,71.404 C115.937,59.11 110.944,47.952 102.885,39.898 C94.832,31.84 83.673,26.846 71.379,26.848 C59.084,26.846 47.926,31.84 39.872,39.898 C31.814,47.952 26.821,59.11 26.822,71.404 L29.822,71.404" id="Fill-18" fill="#C6C6C6" sketch:type="MSShapeGroup"></path>
                <path d="M244,12 C244,6.478 239.523,2 234,2 L179,2 C173.477,2 169,6.478 169,12 L169,132 C169,137.523 173.477,142 179,142 L234,142 C239.523,142 244,137.523 244,132 L244,12 L244,12 Z M206.166,134.334 C202.856,134.334 200.166,131.644 200.166,128.334 C200.166,125.025 202.856,122.334 206.166,122.334 C209.477,122.334 212.166,125.025 212.166,128.334 C212.166,131.644 209.477,134.334 206.166,134.334 L206.166,134.334 Z M176,21 L237,21 L237,115 L176,115 L176,21 Z" id="Fill-39" fill="#878787" sketch:type="MSShapeGroup"></path>
                <text id="OPEN-BEACON" sketch:type="MSTextLayer" font-family="Source Sans Pro" font-size="36.4792" font-weight="normal" fill="#878787">
                    <tspan x="16.1445" y="189.498564">OPEN BE</tspan>
                    <tspan x="152.248395" y="189.498564" letter-spacing="-0.364792">A</tspan>
                    <tspan x="171.363496" y="189.498564" letter-spacing="-1.0214176">C</tspan>
                    <tspan x="190.113805" y="189.498564">ON</tspan>
                </text>
                <text id="CREDENTIALS" sketch:type="MSTextLayer" font-family="Source Sans Pro" font-size="36.4792" font-weight="normal" fill="#878787">
                    <tspan x="21.5944925" y="228.98365">CREDENTIA</tspan>
                    <tspan x="197.095924" y="228.98365" letter-spacing="-0.7660632">L</tspan>
                    <tspan x="213.256209" y="228.98365">S</tspan>
                </text>
                <path d="M228.434,49.871 C226.27,47.961 222.966,48.168 221.056,50.332 L202.289,71.6 L194.758,59.882 C193.196,57.453 189.963,56.75 187.535,58.312 C185.106,59.873 184.403,63.106 185.965,65.534 L197.148,82.932 C198.146,84.485 199.83,85.333 201.55,85.333 C202.518,85.333 203.497,85.064 204.371,84.502 C204.607,84.35 204.823,84.178 205.027,83.996 C205.417,83.742 205.783,83.439 206.105,83.073 L228.895,57.248 C230.805,55.084 230.598,51.781 228.434,49.871" id="Fill-40" fill="#C6C6C6" sketch:type="MSShapeGroup"></path>
            </g>
        </g>
    </g>
</svg>