<?xml version="1.0" encoding="UTF-8" standalone="no"?>
<svg width="1279px" height="640px" viewBox="0 0 1279 640" version="1.1" xmlns="http://www.w3.org/2000/svg" xmlns:xlink="http://www.w3.org/1999/xlink" xmlns:sketch="http://www.bohemiancoding.com/sketch/ns">
    <!-- Generator: Sketch 3.0.1 (7597) - http://www.bohemiancoding.com/sketch -->
    <title>Open iBeacon Credentials</title>
    <description>Created with Sketch.</description>
    <defs></defs>
    <g id="Page-1" stroke="none" stroke-width="1" fill="none" fill-rule="evenodd" sketch:type="MSPage">
        <g id="Open-iBeacon-Credentials" sketch:type="MSArtboardGroup">
            <g id="Walls-3" sketch:type="MSLayerGroup" transform="translate(484.000000, 178.000000)" stroke="#50E3C2" stroke-width="11">
                <rect id="Rectangle-3" sketch:type="MSShapeGroup" x="0" y="0" width="308" height="280"></rect>
                <rect id="Rectangle-3" sketch:type="MSShapeGroup" x="0" y="0" width="190" height="136"></rect>
                <rect id="Rectangle-3" sketch:type="MSShapeGroup" x="0" y="136" width="126" height="144"></rect>
                <rect id="Rectangle-3" sketch:type="MSShapeGroup" x="208" y="183" width="100" height="97"></rect>
                <rect id="Rectangle-3" sketch:type="MSShapeGroup" x="126" y="183" width="82" height="97"></rect>
                <rect id="Rectangle-3" sketch:type="MSShapeGroup" x="189" y="0" width="119" height="136"></rect>
            </g>
            <path d="M762.238854,367.428238 L762.238854,417.99403 L785.404918,417.99403 L785.404918,367.428238 L762.238854,367.428238 Z M767.902796,405.075376 C769.92515,405.075376 771.564592,403.4395 771.564592,401.421545 C771.564592,399.403589 769.92515,397.767713 767.902796,397.767713 C765.880441,397.767713 764.240999,399.403589 764.240999,401.421545 C764.240999,403.4395 765.880441,405.075376 767.902796,405.075376 Z M778.541313,405.075376 C780.563668,405.075376 782.20311,403.4395 782.20311,401.421545 C782.20311,399.403589 780.563668,397.767713 778.541313,397.767713 C776.518959,397.767713 774.879517,399.403589 774.879517,401.421545 C774.879517,403.4395 776.518959,405.075376 778.541313,405.075376 Z M767.902796,415.713893 C769.92515,415.713893 771.564592,414.078017 771.564592,412.060062 C771.564592,410.042106 769.92515,408.40623 767.902796,408.40623 C765.880441,408.40623 764.240999,410.042106 764.240999,412.060062 C764.240999,414.078017 765.880441,415.713893 767.902796,415.713893 Z M778.541313,415.713893 C780.563668,415.713893 782.20311,414.078017 782.20311,412.060062 C782.20311,410.042106 780.563668,408.40623 778.541313,408.40623 C776.518959,408.40623 774.879517,410.042106 774.879517,412.060062 C774.879517,414.078017 776.518959,415.713893 778.541313,415.713893 Z" id="Rectangle-41" fill="#F8E23D" sketch:type="MSShapeGroup"></path>
            <path d="M530.007897,289.304551 L530.007897,305.196657 L590.818815,305.196657 L590.818815,289.304551 L530.007897,289.304551 Z M541.986831,297.400705 L541.986831,302.621173 L569.889957,302.621173 L582.097665,302.621173 L582.097665,297.400705 L541.986831,297.400705 Z" id="Rectangle-57-copy-6" fill="#F8E23D" sketch:type="MSShapeGroup"></path>
            <path d="M714.6,239 L701.314113,239 L701.314113,236.527991 L736.167941,236.527991 L736.167941,239 L724.4,239 L722,243 L717,243 L714.6,239 Z M692,223 L692,246.115791 L742.675765,246.115791 L742.675765,223 L692,223 Z M709.314667,226.049004 L708.558819,233.240413 L728.393107,235.325081 L729.148955,228.133671 L709.314667,226.049004 Z" id="Rectangle-71" fill="#F8E23D" sketch:type="MSShapeGroup"></path>
            <rect id="Rectangle-42" fill="#F8E23D" sketch:type="MSShapeGroup" x="494.546172" y="420.772977" width="11.5948552" height="11.5696352"></rect>
            <rect id="Rectangle-43" fill="#F8E23D" sketch:type="MSShapeGroup" x="713.226805" y="416.86073" width="23.1897104" height="23.1392703"></rect>
            <circle id="Oval-146" fill="#F8E23D" sketch:type="MSShapeGroup" cx="717" cy="407" r="6"></circle>
            <circle id="Oval-147" fill="#F8E23D" sketch:type="MSShapeGroup" cx="778" cy="443" r="6"></circle>
            <path d="M506.548805,412.036851 L506.548805,414.374018 L549.102874,414.374018 L544.469745,381 L506.548805,381 L506.548805,382.900966 L506.548805,382.900966 L499.274402,382.900966 L499.274402,395.09124 L506.548805,395.09124 L506.548805,401.036851 L499.274402,401.036851 L499.274402,412.036851 L506.548805,412.036851 Z M494.546172,377.036851 L494.546172,417.530574 L552.520448,417.530574 L552.520448,377.036851 L494.546172,377.036851 Z" id="Rectangle-51" fill="#F8E23D" sketch:type="MSShapeGroup"></path>
            <g id="Rectangle-59-+-Oval-11-+-Rectangle-75" sketch:type="MSLayerGroup" transform="translate(595.000000, 187.000000)" fill="#F8E23D">
                <path d="M-0.285426981,0.394019158 L-0.285426981,23.5098097 L34.4636692,23.5098097 L34.4636692,0.394019158 L-0.285426981,0.394019158 Z M5.74928748,2.36411495 L5.74928748,18.2723633 L30.3883548,18.2723633 L30.3883548,2.36411495 L5.74928748,2.36411495 Z" id="Rectangle-59" sketch:type="MSShapeGroup"></path>
                <path d="M13.7287726,16.297865 C16.9306036,16.297865 19.5262002,13.7079142 19.5262002,10.5130475 C19.5262002,7.31818078 16.9306036,4.72822989 13.7287726,4.72822989 C10.5269415,4.72822989 7.93134496,7.31818078 7.93134496,10.5130475 C7.93134496,13.7079142 10.5269415,16.297865 13.7287726,16.297865 Z" id="Oval-11" sketch:type="MSShapeGroup"></path>
                <rect id="Rectangle-75" sketch:type="MSShapeGroup" x="21.1160346" y="5.72822989" width="2.23991521" height="9.09042762"></rect>
            </g>
            <g id="Group" sketch:type="MSLayerGroup" transform="translate(530.000000, 187.000000)" fill="#F8E23D">
                <path d="M0.0078965978,0 L0.0078965978,23.1392703 L60.8808864,23.1392703 L60.8808864,0 L0.0078965978,0 Z M9.25315326,2.49617254 L9.25315326,9.62725822 L29.2053831,9.62725822 L29.2053831,2.49617254 L9.25315326,2.49617254 Z M30.2531533,2.49617254 L30.2531533,9.62725822 L50.2053831,9.62725822 L50.2053831,2.49617254 L30.2531533,2.49617254 Z M52.3825403,2 L52.3825403,20.8006571 L58.1799679,20.8006571 L58.1799679,2 L52.3825403,2 Z M2.0078966,2 L2.0078966,20.8006571 L7.8053242,20.8006571 L7.8053242,2 L2.0078966,2 Z" id="Rectangle-61" sketch:type="MSShapeGroup"></path>
            </g>
            <rect id="Rectangle-44" fill="#F8E23D" sketch:type="MSShapeGroup" x="617.285969" y="430.755178" width="20.487469" height="20.4429065"></rect>
            <path d="M700.285969,368.755178 L700.285969,389.198085 L720.773437,389.198085 L720.773437,368.755178 L700.285969,368.755178 Z M704.952403,372.277204 L704.952403,378.976631 L711.666434,378.976631 L711.666434,372.277204 L704.952403,372.277204 Z" id="Rectangle-48" fill="#F8E23D" sketch:type="MSShapeGroup"></path>
            <path d="M707.140462,197.219804 L707.140462,214.380531 C707.140462,215.302069 708.10469,216.219804 709.049474,216.219804 C713.250448,216.219804 721.390598,216.219804 725.132744,216.219804 C726.606761,216.219804 727.54198,215.110154 727.54198,214.09266 L727.54198,208.555033 C727.54198,204.776624 727.54198,197.219804 727.54198,197.219804 L707.140462,197.219804 Z M708.999932,198.951535 L708.999932,204 L725.68251,204 L725.68251,198.951535 L708.999932,198.951535 Z" id="Rectangle-72" fill="#F8E23D" sketch:type="MSShapeGroup" transform="translate(717.317422, 206.953305) rotate(16.000000) translate(-717.317422, -206.953305) "></path>
            <path d="M639,428 L639,451.490503 L685.278572,451.490503 L685.278572,428 L639,428 Z M649.708502,432.672626 C646.666795,432.672626 644.201005,435.142466 644.201005,438.18062 L644.201005,440.37804 C644.201005,443.420021 646.666946,445.886034 649.708502,445.886034 L674.570071,445.886034 C677.611777,445.886034 680.077567,443.416193 680.077567,440.37804 L680.077567,438.18062 C680.077567,435.138639 677.611626,432.672626 674.570071,432.672626 L649.708502,432.672626 Z" id="Rectangle-46" fill="#F8E23D" sketch:type="MSShapeGroup"></path>
            <rect id="Rectangle-79" fill="#F8E23D" sketch:type="MSShapeGroup" x="765.437892" y="287.904222" width="18.8416397" height="18.8006571"></rect>
            <rect id="Rectangle-53" fill="#F8E23D" sketch:type="MSShapeGroup" x="772.057841" y="419.394795" width="12.2216908" height="30.8032893"></rect>
            <path d="M515.5,384.5 L515.5,410.5" id="Line" fill="#F8E23D" sketch:type="MSShapeGroup"></path>
            <path d="M498.5,328.5 L498.5,354.5" id="Line-2" fill="#F8E23D" sketch:type="MSShapeGroup"></path>
            <path d="M723.285969,328 L697.285969,328" id="Line-3" fill="#F8E23D" sketch:type="MSShapeGroup"></path>
            <circle id="Oval-145" fill="#F8E23D" sketch:type="MSShapeGroup" cx="561" cy="237" r="18"></circle>
            <path d="M686.938313,388.057583 L686.938313,408.678997 C686.938313,408.678997 681.986724,408.678997 678.537565,408.678997 C675.088406,408.678997 670.41883,406.509414 670.41883,397.876615 C670.41883,389.243816 677.219543,388.057583 679.324955,388.057583 C681.430368,388.057583 686.938313,388.057583 686.938313,388.057583 Z M684,392 L684,405 C684,405 681.453788,405 679.231318,405 C677.008847,405 674,403.632267 674,398.190042 C674,392.747816 678.382048,392 679.738674,392 C681.095299,392 684,392 684,392 Z" id="Path-214" fill="#F8E23D" sketch:type="MSShapeGroup"></path>
            <circle id="Oval-148" fill="#F8E23D" sketch:type="MSShapeGroup" cx="706.5" cy="441.5" r="1.5"></circle>
            <circle id="Oval-149" fill="#F8E23D" sketch:type="MSShapeGroup" cx="680.5" cy="398.5" r="1.5"></circle>
            <path d="M420.192,102.563149 L420.808,124.963149 L408.376,124.963149 L408.376,85.3151492 L425.792,85.3151492 L432.96,106.651149 L433.24,106.651149 L439.456,85.3151492 L457.432,85.3151492 L457.432,124.963149 L444.496,124.963149 L444.888,102.675149 L444.552,102.619149 L437.16,124.963149 L427.752,124.963149 L420.472,102.563149 L420.192,102.563149 Z M479.72,106.259149 C479.72,105.363145 479.412003,104.700485 478.796,104.271149 C478.179997,103.841814 477.368005,103.627149 476.36,103.627149 C475.165327,103.627149 474.036005,103.879147 472.972,104.383149 C471.907995,104.887152 470.965337,105.475146 470.144,106.147149 L463.704,99.7631492 C465.496009,98.0458073 467.623988,96.7204872 470.088,95.7871492 C472.552012,94.8538112 475.090654,94.3871492 477.704,94.3871492 C480.504014,94.3871492 482.818658,94.7791453 484.648,95.5631492 C486.477342,96.3471531 487.923995,97.429809 488.988,98.8111492 C490.052005,100.192489 490.798665,101.797807 491.228,103.627149 C491.657335,105.456492 491.872,107.397806 491.872,109.451149 L491.872,124.963149 L480.168,124.963149 L480.168,122.611149 L480.056,122.611149 C479.30933,123.731155 478.24534,124.533813 476.864,125.019149 C475.48266,125.504485 474.138673,125.747149 472.832,125.747149 C471.674661,125.747149 470.489339,125.579151 469.276,125.243149 C468.062661,124.907148 466.961338,124.36582 465.972,123.619149 C464.982662,122.872479 464.17067,121.901822 463.536,120.707149 C462.90133,119.512477 462.584,118.037825 462.584,116.283149 C462.584,114.229806 463.115995,112.559156 464.18,111.271149 C465.244005,109.983143 466.597325,108.975153 468.24,108.247149 C469.882675,107.519146 471.721323,107.024484 473.756,106.763149 C475.790677,106.501815 477.778657,106.371149 479.72,106.371149 L479.72,106.259149 Z M479.832,112.755149 C477.92799,112.755149 476.397339,112.96048 475.24,113.371149 C474.082661,113.781818 473.504,114.547144 473.504,115.667149 C473.504,116.077818 473.597332,116.423148 473.784,116.703149 C473.970668,116.983151 474.213332,117.216482 474.512,117.403149 C474.810668,117.589817 475.137332,117.729815 475.492,117.823149 C475.846668,117.916483 476.173332,117.963149 476.472,117.963149 C477.704006,117.963149 478.69333,117.571153 479.44,116.787149 C480.18667,116.003145 480.56,114.995155 480.56,113.763149 L480.56,112.755149 L479.832,112.755149 Z M510.576,124.291149 C510.576,126.195159 510.380002,127.996474 509.988,129.695149 C509.595998,131.393824 508.896005,132.887143 507.888,134.175149 C506.879995,135.463156 505.517342,136.489812 503.8,137.255149 C502.082658,138.020486 499.917346,138.403149 497.304,138.403149 C496.55733,138.403149 495.661339,138.34715 494.616,138.235149 C493.570661,138.123149 492.67467,137.95515 491.928,137.731149 L492.6,127.203149 C493.010669,127.31515 493.393332,127.389816 493.748,127.427149 C494.102668,127.464483 494.410665,127.483149 494.672,127.483149 C495.642672,127.483149 496.379997,127.212485 496.884,126.671149 C497.388003,126.129813 497.64,125.205822 497.64,123.899149 L497.64,95.5071492 L510.576,95.5071492 L510.576,124.291149 Z M497.416,86.9951492 C497.416,86.0991447 497.593332,85.2498199 497.948,84.4471492 C498.302668,83.6444785 498.787997,82.9444855 499.404,82.3471492 C500.020003,81.7498129 500.738663,81.2738177 501.56,80.9191492 C502.381337,80.5644808 503.239996,80.3871492 504.136,80.3871492 C505.032004,80.3871492 505.881329,80.5644808 506.684,80.9191492 C507.486671,81.2738177 508.195997,81.7498129 508.812,82.3471492 C509.428003,82.9444855 509.913332,83.6444785 510.268,84.4471492 C510.622668,85.2498199 510.8,86.0991447 510.8,86.9951492 C510.8,87.9284872 510.622668,88.7964785 510.268,89.5991492 C509.913332,90.4018199 509.428003,91.0924797 508.812,91.6711492 C508.195997,92.2498188 507.486671,92.7071475 506.684,93.0431492 C505.881329,93.3791509 505.032004,93.5471492 504.136,93.5471492 C503.239996,93.5471492 502.381337,93.3791509 501.56,93.0431492 C500.738663,92.7071475 500.020003,92.2498188 499.404,91.6711492 C498.787997,91.0924797 498.302668,90.4018199 497.948,89.5991492 C497.593332,88.7964785 497.416,87.9284872 497.416,86.9951492 Z M548.992,110.123149 C548.992,112.661829 548.534671,114.920473 547.62,116.899149 C546.705329,118.877826 545.473341,120.548476 543.924,121.911149 C542.374659,123.273823 540.582677,124.309812 538.548,125.019149 C536.513323,125.728486 534.376011,126.083149 532.136,126.083149 C529.933322,126.083149 527.814677,125.728486 525.78,125.019149 C523.745323,124.309812 521.962674,123.273823 520.432,121.911149 C518.901326,120.548476 517.678671,118.877826 516.764,116.899149 C515.849329,114.920473 515.392,112.661829 515.392,110.123149 C515.392,107.621803 515.849329,105.391159 516.764,103.431149 C517.678671,101.471139 518.901326,99.8191559 520.432,98.4751492 C521.962674,97.1311425 523.745323,96.1138193 525.78,95.4231492 C527.814677,94.7324791 529.933322,94.3871492 532.136,94.3871492 C534.376011,94.3871492 536.513323,94.7324791 538.548,95.4231492 C540.582677,96.1138193 542.374659,97.1311425 543.924,98.4751492 C545.473341,99.8191559 546.705329,101.471139 547.62,103.431149 C548.534671,105.391159 548.992,107.621803 548.992,110.123149 Z M532.136,105.251149 C530.717326,105.251149 529.569338,105.736478 528.692,106.707149 C527.814662,107.677821 527.376,108.816476 527.376,110.123149 C527.376,111.504489 527.823996,112.680478 528.72,113.651149 C529.616004,114.621821 530.773326,115.107149 532.192,115.107149 C533.610674,115.107149 534.767996,114.621821 535.664,113.651149 C536.560004,112.680478 537.008,111.504489 537.008,110.123149 C537.008,108.816476 536.550671,107.677821 535.636,106.707149 C534.721329,105.736478 533.554674,105.251149 532.136,105.251149 Z M553.752,95.5071492 L566.184,95.5071492 L566.184,98.8671492 L566.296,98.8671492 C566.93067,97.6724766 567.873327,96.6831531 569.124,95.8991492 C570.374673,95.1151453 571.839992,94.7231492 573.52,94.7231492 C574.528005,94.7231492 575.34933,94.8164816 575.984,95.0031492 L574.976,105.979149 C574.565331,105.867149 574.108003,105.783149 573.604,105.727149 C573.099997,105.671149 572.642669,105.643149 572.232,105.643149 C570.551992,105.643149 569.208005,106.128478 568.2,107.099149 C567.191995,108.069821 566.688,109.264475 566.688,110.683149 L566.688,124.963149 L553.752,124.963149 L553.752,95.5071492 Z M593.4,85.3151492 L606.84,85.3151492 L606.84,124.963149 L593.4,124.963149 L593.4,85.3151492 Z M614.232,124.963149 L614.232,85.3151492 L629.016,85.3151492 C632.152016,85.3151492 635.147986,85.6231461 638.004,86.2391492 C640.860014,86.8551523 643.379989,87.9191417 645.564,89.4311492 C647.748011,90.9431568 649.493327,92.9498034 650.8,95.4511492 C652.106673,97.9524951 652.76,101.10713 652.76,104.915149 C652.76,108.387167 652.134673,111.39247 650.884,113.931149 C649.633327,116.469829 647.962677,118.551141 645.872,120.175149 C643.781323,121.799157 641.373347,123.003145 638.648,123.787149 C635.922653,124.571153 633.085348,124.963149 630.136,124.963149 L614.232,124.963149 Z M627.056,96.6271492 L627.056,113.539149 L629.52,113.539149 C632.656016,113.539149 635.063992,112.857823 636.744,111.495149 C638.424008,110.132476 639.264,107.901831 639.264,104.803149 C639.264,102.227136 638.424008,100.22049 636.744,98.7831492 C635.063992,97.3458087 632.824014,96.6271492 630.024,96.6271492 L627.056,96.6271492 Z M669.672,108.835149 C669.672,104.28046 670.36266,99.7165054 671.744,95.1431492 C673.12534,90.569793 675.215986,86.3605018 678.016,82.5151492 L686.584,85.6511492 C681.618642,92.5205169 679.136,100.24844 679.136,108.835149 C679.136,117.421859 681.618642,125.149782 686.584,132.019149 L678.016,135.155149 C675.215986,131.309797 673.12534,127.100505 671.744,122.527149 C670.36266,117.953793 669.672,113.389839 669.672,108.835149 Z M692.52,85.3151492 L709.6,85.3151492 C711.541343,85.3151492 713.473324,85.5111473 715.396,85.9031492 C717.318676,86.2951512 719.035992,86.9858109 720.548,87.9751492 C722.060008,88.9644875 723.282662,90.2898076 724.216,91.9511492 C725.149338,93.6124909 725.616,95.6938034 725.616,98.1951492 C725.616,100.621828 725.018673,102.75914 723.824,104.607149 C722.629327,106.455158 720.912011,107.883144 718.672,108.891149 L728.752,124.963149 L713.408,124.963149 L705.792,110.795149 L705.4,110.795149 L705.4,124.963149 L692.52,124.963149 L692.52,85.3151492 Z M705.288,102.059149 L707.92,102.059149 C708.368002,102.059149 708.862664,102.021816 709.404,101.947149 C709.945336,101.872482 710.449331,101.713817 710.916,101.471149 C711.382669,101.228481 711.774665,100.892485 712.092,100.463149 C712.409335,100.033814 712.568,99.4644861 712.568,98.7551492 C712.568,98.0458123 712.437335,97.4858179 712.176,97.0751492 C711.914665,96.6644805 711.578669,96.3564836 711.168,96.1511492 C710.757331,95.9458149 710.309336,95.8151495 709.824,95.7591492 C709.338664,95.7031489 708.890669,95.6751492 708.48,95.6751492 L705.288,95.6751492 L705.288,102.059149 Z M763.528,110.123149 C763.528,112.661829 763.070671,114.920473 762.156,116.899149 C761.241329,118.877826 760.009341,120.548476 758.46,121.911149 C756.910659,123.273823 755.118677,124.309812 753.084,125.019149 C751.049323,125.728486 748.912011,126.083149 746.672,126.083149 C744.469322,126.083149 742.350677,125.728486 740.316,125.019149 C738.281323,124.309812 736.498674,123.273823 734.968,121.911149 C733.437326,120.548476 732.214671,118.877826 731.3,116.899149 C730.385329,114.920473 729.928,112.661829 729.928,110.123149 C729.928,107.621803 730.385329,105.391159 731.3,103.431149 C732.214671,101.471139 733.437326,99.8191559 734.968,98.4751492 C736.498674,97.1311425 738.281323,96.1138193 740.316,95.4231492 C742.350677,94.7324791 744.469322,94.3871492 746.672,94.3871492 C748.912011,94.3871492 751.049323,94.7324791 753.084,95.4231492 C755.118677,96.1138193 756.910659,97.1311425 758.46,98.4751492 C760.009341,99.8191559 761.241329,101.471139 762.156,103.431149 C763.070671,105.391159 763.528,107.621803 763.528,110.123149 Z M746.672,105.251149 C745.253326,105.251149 744.105338,105.736478 743.228,106.707149 C742.350662,107.677821 741.912,108.816476 741.912,110.123149 C741.912,111.504489 742.359996,112.680478 743.256,113.651149 C744.152004,114.621821 745.309326,115.107149 746.728,115.107149 C748.146674,115.107149 749.303996,114.621821 750.2,113.651149 C751.096004,112.680478 751.544,111.504489 751.544,110.123149 C751.544,108.816476 751.086671,107.677821 750.172,106.707149 C749.257329,105.736478 748.090674,105.251149 746.672,105.251149 Z M800.712,110.123149 C800.712,112.661829 800.254671,114.920473 799.34,116.899149 C798.425329,118.877826 797.193341,120.548476 795.644,121.911149 C794.094659,123.273823 792.302677,124.309812 790.268,125.019149 C788.233323,125.728486 786.096011,126.083149 783.856,126.083149 C781.653322,126.083149 779.534677,125.728486 777.5,125.019149 C775.465323,124.309812 773.682674,123.273823 772.152,121.911149 C770.621326,120.548476 769.398671,118.877826 768.484,116.899149 C767.569329,114.920473 767.112,112.661829 767.112,110.123149 C767.112,107.621803 767.569329,105.391159 768.484,103.431149 C769.398671,101.471139 770.621326,99.8191559 772.152,98.4751492 C773.682674,97.1311425 775.465323,96.1138193 777.5,95.4231492 C779.534677,94.7324791 781.653322,94.3871492 783.856,94.3871492 C786.096011,94.3871492 788.233323,94.7324791 790.268,95.4231492 C792.302677,96.1138193 794.094659,97.1311425 795.644,98.4751492 C797.193341,99.8191559 798.425329,101.471139 799.34,103.431149 C800.254671,105.391159 800.712,107.621803 800.712,110.123149 Z M783.856,105.251149 C782.437326,105.251149 781.289338,105.736478 780.412,106.707149 C779.534662,107.677821 779.096,108.816476 779.096,110.123149 C779.096,111.504489 779.543996,112.680478 780.44,113.651149 C781.336004,114.621821 782.493326,115.107149 783.912,115.107149 C785.330674,115.107149 786.487996,114.621821 787.384,113.651149 C788.280004,112.680478 788.728,111.504489 788.728,110.123149 C788.728,108.816476 788.270671,107.677821 787.356,106.707149 C786.441329,105.736478 785.274674,105.251149 783.856,105.251149 Z M823.504,124.963149 L823.504,109.507149 C823.504,108.013808 823.317335,106.931153 822.944,106.259149 C822.570665,105.587146 821.954671,105.251149 821.096,105.251149 C820.46133,105.251149 819.85467,105.549813 819.276,106.147149 C818.69733,106.744486 818.408,107.808475 818.408,109.339149 L818.408,124.963149 L805.472,124.963149 L805.472,95.5071492 L818.072,95.5071492 L818.072,98.7551492 L818.184,98.7551492 C818.557335,98.2698135 819.014664,97.7938182 819.556,97.3271492 C820.097336,96.8604802 820.71333,96.4311512 821.404,96.0391492 C822.09467,95.6471473 822.869329,95.3298171 823.728,95.0871492 C824.586671,94.8444813 825.519995,94.7231492 826.528,94.7231492 C828.469343,94.7231492 830.149326,95.0684791 831.568,95.7591492 C832.986674,96.4498193 834.106663,97.5231419 834.928,98.9791492 C835.898672,97.7844766 837.093326,96.7764867 838.512,95.9551492 C839.930674,95.1338118 841.722656,94.7231492 843.888,94.7231492 C845.978677,94.7231492 847.705327,95.1338118 849.068,95.9551492 C850.430673,96.7764867 851.513329,97.8031431 852.316,99.0351492 C853.118671,100.267155 853.678665,101.601809 853.996,103.039149 C854.313335,104.47649 854.472,105.811143 854.472,107.043149 L854.472,124.963149 L841.536,124.963149 L841.536,109.283149 C841.536,107.677808 841.340002,106.604485 840.948,106.063149 C840.555998,105.521813 839.949337,105.251149 839.128,105.251149 C838.38133,105.251149 837.746669,105.596479 837.224,106.287149 C836.701331,106.977819 836.44,107.995142 836.44,109.339149 L836.44,124.963149 L823.504,124.963149 Z M876.312,108.835149 C876.312,113.389839 875.62134,117.953793 874.24,122.527149 C872.85866,127.100505 870.768014,131.309797 867.968,135.155149 L859.4,132.019149 C864.365358,125.149782 866.848,117.421859 866.848,108.835149 C866.848,100.24844 864.365358,92.5205169 859.4,85.6511492 L867.968,82.5151492 C870.768014,86.3605018 872.85866,90.569793 874.24,95.1431492 C875.62134,99.7165054 876.312,104.28046 876.312,108.835149 L876.312,108.835149 Z" id="Major-ID-(Room)" fill="#50E3C2" sketch:type="MSShapeGroup"></path>
            <path d="M434.272,527.904551 L434.888,550.304551 L422.456,550.304551 L422.456,510.656551 L439.872,510.656551 L447.04,531.992551 L447.32,531.992551 L453.536,510.656551 L471.512,510.656551 L471.512,550.304551 L458.576,550.304551 L458.968,528.016551 L458.632,527.960551 L451.24,550.304551 L441.832,550.304551 L434.552,527.904551 L434.272,527.904551 Z M493.8,531.600551 C493.8,530.704546 493.492003,530.041886 492.876,529.612551 C492.259997,529.183215 491.448005,528.968551 490.44,528.968551 C489.245327,528.968551 488.116005,529.220548 487.052,529.724551 C485.987995,530.228553 485.045337,530.816547 484.224,531.488551 L477.784,525.104551 C479.576009,523.387209 481.703988,522.061889 484.168,521.128551 C486.632012,520.195213 489.170654,519.728551 491.784,519.728551 C494.584014,519.728551 496.898658,520.120547 498.728,520.904551 C500.557342,521.688554 502.003995,522.77121 503.068,524.152551 C504.132005,525.533891 504.878665,527.139208 505.308,528.968551 C505.737335,530.797893 505.952,532.739207 505.952,534.792551 L505.952,550.304551 L494.248,550.304551 L494.248,547.952551 L494.136,547.952551 C493.38933,549.072556 492.32534,549.875215 490.944,550.360551 C489.56266,550.845886 488.218673,551.088551 486.912,551.088551 C485.754661,551.088551 484.569339,550.920552 483.356,550.584551 C482.142661,550.248549 481.041338,549.707221 480.052,548.960551 C479.062662,548.21388 478.25067,547.243223 477.616,546.048551 C476.98133,544.853878 476.664,543.379226 476.664,541.624551 C476.664,539.571207 477.195995,537.900557 478.26,536.612551 C479.324005,535.324544 480.677325,534.316554 482.32,533.588551 C483.962675,532.860547 485.801323,532.365885 487.836,532.104551 C489.870677,531.843216 491.858657,531.712551 493.8,531.712551 L493.8,531.600551 Z M493.912,538.096551 C492.00799,538.096551 490.477339,538.301882 489.32,538.712551 C488.162661,539.123219 487.584,539.888545 487.584,541.008551 C487.584,541.419219 487.677332,541.764549 487.864,542.044551 C488.050668,542.324552 488.293332,542.557883 488.592,542.744551 C488.890668,542.931218 489.217332,543.071217 489.572,543.164551 C489.926668,543.257884 490.253332,543.304551 490.552,543.304551 C491.784006,543.304551 492.77333,542.912554 493.52,542.128551 C494.26667,541.344547 494.64,540.336557 494.64,539.104551 L494.64,538.096551 L493.912,538.096551 Z M524.656,549.632551 C524.656,551.53656 524.460002,553.337875 524.068,555.036551 C523.675998,556.735226 522.976005,558.228544 521.968,559.516551 C520.959995,560.804557 519.597342,561.831213 517.88,562.596551 C516.162658,563.361888 513.997346,563.744551 511.384,563.744551 C510.63733,563.744551 509.741339,563.688551 508.696,563.576551 C507.650661,563.46455 506.75467,563.296552 506.008,563.072551 L506.68,552.544551 C507.090669,552.656551 507.473332,552.731217 507.828,552.768551 C508.182668,552.805884 508.490665,552.824551 508.752,552.824551 C509.722672,552.824551 510.459997,552.553887 510.964,552.012551 C511.468003,551.471215 511.72,550.547224 511.72,549.240551 L511.72,520.848551 L524.656,520.848551 L524.656,549.632551 Z M511.496,512.336551 C511.496,511.440546 511.673332,510.591221 512.028,509.788551 C512.382668,508.98588 512.867997,508.285887 513.484,507.688551 C514.100003,507.091214 514.818663,506.615219 515.64,506.260551 C516.461337,505.905882 517.319996,505.728551 518.216,505.728551 C519.112004,505.728551 519.961329,505.905882 520.764,506.260551 C521.566671,506.615219 522.275997,507.091214 522.892,507.688551 C523.508003,508.285887 523.993332,508.98588 524.348,509.788551 C524.702668,510.591221 524.88,511.440546 524.88,512.336551 C524.88,513.269889 524.702668,514.13788 524.348,514.940551 C523.993332,515.743221 523.508003,516.433881 522.892,517.012551 C522.275997,517.59122 521.566671,518.048549 520.764,518.384551 C519.961329,518.720552 519.112004,518.888551 518.216,518.888551 C517.319996,518.888551 516.461337,518.720552 515.64,518.384551 C514.818663,518.048549 514.100003,517.59122 513.484,517.012551 C512.867997,516.433881 512.382668,515.743221 512.028,514.940551 C511.673332,514.13788 511.496,513.269889 511.496,512.336551 Z M563.072,535.464551 C563.072,538.00323 562.614671,540.261874 561.7,542.240551 C560.785329,544.219227 559.553341,545.889877 558.004,547.252551 C556.454659,548.615224 554.662677,549.651214 552.628,550.360551 C550.593323,551.069887 548.456011,551.424551 546.216,551.424551 C544.013322,551.424551 541.894677,551.069887 539.86,550.360551 C537.825323,549.651214 536.042674,548.615224 534.512,547.252551 C532.981326,545.889877 531.758671,544.219227 530.844,542.240551 C529.929329,540.261874 529.472,538.00323 529.472,535.464551 C529.472,532.963205 529.929329,530.73256 530.844,528.772551 C531.758671,526.812541 532.981326,525.160557 534.512,523.816551 C536.042674,522.472544 537.825323,521.455221 539.86,520.764551 C541.894677,520.07388 544.013322,519.728551 546.216,519.728551 C548.456011,519.728551 550.593323,520.07388 552.628,520.764551 C554.662677,521.455221 556.454659,522.472544 558.004,523.816551 C559.553341,525.160557 560.785329,526.812541 561.7,528.772551 C562.614671,530.73256 563.072,532.963205 563.072,535.464551 Z M546.216,530.592551 C544.797326,530.592551 543.649338,531.077879 542.772,532.048551 C541.894662,533.019222 541.456,534.157877 541.456,535.464551 C541.456,536.845891 541.903996,538.021879 542.8,538.992551 C543.696004,539.963222 544.853326,540.448551 546.272,540.448551 C547.690674,540.448551 548.847996,539.963222 549.744,538.992551 C550.640004,538.021879 551.088,536.845891 551.088,535.464551 C551.088,534.157877 550.630671,533.019222 549.716,532.048551 C548.801329,531.077879 547.634674,530.592551 546.216,530.592551 Z M567.832,520.848551 L580.264,520.848551 L580.264,524.208551 L580.376,524.208551 C581.01067,523.013878 581.953327,522.024554 583.204,521.240551 C584.454673,520.456547 585.919992,520.064551 587.6,520.064551 C588.608005,520.064551 589.42933,520.157883 590.064,520.344551 L589.056,531.320551 C588.645331,531.20855 588.188003,531.124551 587.684,531.068551 C587.179997,531.01255 586.722669,530.984551 586.312,530.984551 C584.631992,530.984551 583.288005,531.469879 582.28,532.440551 C581.271995,533.411222 580.768,534.605877 580.768,536.024551 L580.768,550.304551 L567.832,550.304551 L567.832,520.848551 Z M607.48,510.656551 L620.92,510.656551 L620.92,550.304551 L607.48,550.304551 L607.48,510.656551 Z M628.312,550.304551 L628.312,510.656551 L643.096,510.656551 C646.232016,510.656551 649.227986,510.964547 652.084,511.580551 C654.940014,512.196554 657.459989,513.260543 659.644,514.772551 C661.828011,516.284558 663.573327,518.291205 664.88,520.792551 C666.186673,523.293896 666.84,526.448532 666.84,530.256551 C666.84,533.728568 666.214673,536.733871 664.964,539.272551 C663.713327,541.81123 662.042677,543.892542 659.952,545.516551 C657.861323,547.140559 655.453347,548.344547 652.728,549.128551 C650.002653,549.912554 647.165348,550.304551 644.216,550.304551 L628.312,550.304551 Z M641.136,521.968551 L641.136,538.880551 L643.6,538.880551 C646.736016,538.880551 649.143992,538.199224 650.824,536.836551 C652.504008,535.473877 653.344,533.243233 653.344,530.144551 C653.344,527.568538 652.504008,525.561891 650.824,524.124551 C649.143992,522.68721 646.904014,521.968551 644.104,521.968551 L641.136,521.968551 Z M683.752,534.176551 C683.752,529.621861 684.44266,525.057907 685.824,520.484551 C687.20534,515.911194 689.295986,511.701903 692.096,507.856551 L700.664,510.992551 C695.698642,517.861918 693.216,525.589841 693.216,534.176551 C693.216,542.76326 695.698642,550.491183 700.664,557.360551 L692.096,560.496551 C689.295986,556.651198 687.20534,552.441907 685.824,547.868551 C684.44266,543.295194 683.752,538.73124 683.752,534.176551 Z M719.592,551.424551 C717.986659,551.424551 716.409341,551.284552 714.86,551.004551 C713.310659,550.724549 711.817341,550.313887 710.38,549.772551 C708.942659,549.231215 707.58934,548.596554 706.32,547.868551 C705.05066,547.140547 703.912005,546.328555 702.904,545.432551 L711.024,536.584551 C711.957338,537.592556 713.198659,538.488547 714.748,539.272551 C716.297341,540.056554 717.893325,540.448551 719.536,540.448551 C720.28267,540.448551 720.963997,540.317885 721.58,540.056551 C722.196003,539.795216 722.504,539.309887 722.504,538.600551 C722.504,538.227215 722.401334,537.909885 722.196,537.648551 C721.990666,537.387216 721.626669,537.116552 721.104,536.836551 C720.581331,536.556549 719.862671,536.248552 718.948,535.912551 C718.033329,535.576549 716.88534,535.184553 715.504,534.736551 C714.159993,534.288548 712.872006,533.756554 711.64,533.140551 C710.407994,532.524547 709.316005,531.768555 708.364,530.872551 C707.411995,529.976546 706.656003,528.903223 706.096,527.652551 C705.535997,526.401878 705.256,524.899226 705.256,523.144551 C705.256,520.680538 705.759995,518.589892 706.768,516.872551 C707.776005,515.155209 709.073325,513.745889 710.66,512.644551 C712.246675,511.543212 714.029323,510.749886 716.008,510.264551 C717.986677,509.779215 719.946657,509.536551 721.888,509.536551 C724.501346,509.536551 727.16132,510.040546 729.868,511.048551 C732.57468,512.056556 734.954656,513.512541 737.008,515.416551 L728.72,523.872551 C727.823996,522.752545 726.722673,521.90322 725.416,521.324551 C724.109327,520.745881 722.933339,520.456551 721.888,520.456551 C720.917328,520.456551 720.133336,520.596549 719.536,520.876551 C718.938664,521.156552 718.64,521.613881 718.64,522.248551 C718.64,522.845887 718.947997,523.293882 719.564,523.592551 C720.180003,523.891219 721.17866,524.264548 722.56,524.712551 C723.978674,525.160553 725.471992,525.683214 727.04,526.280551 C728.608008,526.877887 730.05466,527.652546 731.38,528.604551 C732.70534,529.556555 733.797329,530.72321 734.656,532.104551 C735.514671,533.485891 735.944,535.203207 735.944,537.256551 C735.944,539.645896 735.468005,541.727208 734.516,543.500551 C733.563995,545.273893 732.313341,546.748545 730.764,547.924551 C729.214659,549.100556 727.469343,549.977881 725.528,550.556551 C723.586657,551.13522 721.60801,551.424551 719.592,551.424551 Z M761.144,551.088551 C759.687993,551.088551 758.250674,550.817887 756.832,550.276551 C755.413326,549.735215 754.256004,548.979222 753.36,548.008551 L753.248,548.008551 L753.248,563.744551 L740.424,563.744551 L740.424,520.848551 L752.576,520.848551 L752.576,523.816551 L752.688,523.816551 C753.770672,522.584544 755.077326,521.65122 756.608,521.016551 C758.138674,520.381881 759.631993,520.064551 761.088,520.064551 C763.290678,520.064551 765.231992,520.512546 766.912,521.408551 C768.592008,522.304555 769.991994,523.480543 771.112,524.936551 C772.232006,526.392558 773.08133,528.035208 773.66,529.864551 C774.23867,531.693893 774.528,533.560541 774.528,535.464551 C774.528,537.405894 774.23867,539.309875 773.66,541.176551 C773.08133,543.043227 772.232006,544.713877 771.112,546.188551 C769.991994,547.663225 768.601342,548.848546 766.94,549.744551 C765.278658,550.640555 763.346678,551.088551 761.144,551.088551 Z M762.544,535.464551 C762.544,534.157877 762.133337,533.019222 761.312,532.048551 C760.490663,531.077879 759.296008,530.592551 757.728,530.592551 C756.197326,530.592551 754.974671,531.077879 754.06,532.048551 C753.145329,533.019222 752.688,534.157877 752.688,535.464551 C752.688,536.845891 753.145329,538.021879 754.06,538.992551 C754.974671,539.963222 756.197326,540.448551 757.728,540.448551 C759.296008,540.448551 760.490663,539.972555 761.312,539.020551 C762.133337,538.068546 762.544,536.883224 762.544,535.464551 Z M811.712,535.464551 C811.712,538.00323 811.254671,540.261874 810.34,542.240551 C809.425329,544.219227 808.193341,545.889877 806.644,547.252551 C805.094659,548.615224 803.302677,549.651214 801.268,550.360551 C799.233323,551.069887 797.096011,551.424551 794.856,551.424551 C792.653322,551.424551 790.534677,551.069887 788.5,550.360551 C786.465323,549.651214 784.682674,548.615224 783.152,547.252551 C781.621326,545.889877 780.398671,544.219227 779.484,542.240551 C778.569329,540.261874 778.112,538.00323 778.112,535.464551 C778.112,532.963205 778.569329,530.73256 779.484,528.772551 C780.398671,526.812541 781.621326,525.160557 783.152,523.816551 C784.682674,522.472544 786.465323,521.455221 788.5,520.764551 C790.534677,520.07388 792.653322,519.728551 794.856,519.728551 C797.096011,519.728551 799.233323,520.07388 801.268,520.764551 C803.302677,521.455221 805.094659,522.472544 806.644,523.816551 C808.193341,525.160557 809.425329,526.812541 810.34,528.772551 C811.254671,530.73256 811.712,532.963205 811.712,535.464551 Z M794.856,530.592551 C793.437326,530.592551 792.289338,531.077879 791.412,532.048551 C790.534662,533.019222 790.096,534.157877 790.096,535.464551 C790.096,536.845891 790.543996,538.021879 791.44,538.992551 C792.336004,539.963222 793.493326,540.448551 794.912,540.448551 C796.330674,540.448551 797.487996,539.963222 798.384,538.992551 C799.280004,538.021879 799.728,536.845891 799.728,535.464551 C799.728,534.157877 799.270671,533.019222 798.356,532.048551 C797.441329,531.077879 796.274674,530.592551 794.856,530.592551 Z M829.296,551.088551 C825.338647,551.088551 822.40801,550.239226 820.504,548.540551 C818.59999,546.841875 817.648,544.200568 817.648,540.616551 L817.648,530.088551 L813.504,530.088551 L813.504,520.848551 L817.592,520.848551 L817.592,514.240551 L830.136,514.240551 L830.136,520.848551 L836.52,520.848551 L836.52,530.088551 L830.136,530.088551 L830.136,537.928551 C830.136,539.347224 830.443997,540.308548 831.06,540.812551 C831.676003,541.316553 832.525328,541.568551 833.608,541.568551 C834.018669,541.568551 834.447998,541.531218 834.896,541.456551 C835.344002,541.381884 835.698665,541.307218 835.96,541.232551 L835.96,550.080551 C835.287997,550.379219 834.345339,550.621883 833.132,550.808551 C831.918661,550.995218 830.640007,551.088551 829.296,551.088551 L829.296,551.088551 Z M856.232,534.176551 C856.232,538.73124 855.54134,543.295194 854.16,547.868551 C852.77866,552.441907 850.688014,556.651198 847.888,560.496551 L839.32,557.360551 C844.285358,550.491183 846.768,542.76326 846.768,534.176551 C846.768,525.589841 844.285358,517.861918 839.32,510.992551 L847.888,507.856551 C850.688014,511.701903 852.77866,515.911194 854.16,520.484551 C855.54134,525.057907 856.232,529.621861 856.232,534.176551 L856.232,534.176551 Z" id="Major-ID-(Spot)" fill="#F8E23D" sketch:type="MSShapeGroup"></path>
        </g>
    </g>
</svg>