<?xml version="1.0" encoding="UTF-8" standalone="no"?>
<svg width="1279px" height="640px" viewBox="0 0 1279 640" version="1.1" xmlns="http://www.w3.org/2000/svg" xmlns:xlink="http://www.w3.org/1999/xlink" xmlns:sketch="http://www.bohemiancoding.com/sketch/ns">
    <!-- Generator: Sketch 3.0.1 (7597) - http://www.bohemiancoding.com/sketch -->
    <title>Scheme_Teaser</title>
    <description>Created with Sketch.</description>
    <defs></defs>
    <g id="Page-1" stroke="none" stroke-width="1" fill="none" fill-rule="evenodd" sketch:type="MSPage">
        <g id="Scheme_Teaser" sketch:type="MSArtboardGroup">
            <g id="Walls-3" sketch:type="MSLayerGroup" transform="translate(484.000000, 178.000000)" stroke="#50E3C2" stroke-width="11">
                <rect id="Rectangle-3" sketch:type="MSShapeGroup" x="0" y="0" width="308" height="280"></rect>
                <rect id="Rectangle-3" sketch:type="MSShapeGroup" x="0" y="0" width="190" height="136"></rect>
                <rect id="Rectangle-3" sketch:type="MSShapeGroup" x="0" y="136" width="126" height="144"></rect>
                <rect id="Rectangle-3" sketch:type="MSShapeGroup" x="208" y="183" width="100" height="97"></rect>
                <rect id="Rectangle-3" sketch:type="MSShapeGroup" x="126" y="183" width="82" height="97"></rect>
                <rect id="Rectangle-3" sketch:type="MSShapeGroup" x="189" y="0" width="119" height="136"></rect>
            </g>
            <path d="M762.238854,367.428238 L762.238854,417.99403 L785.404918,417.99403 L785.404918,367.428238 L762.238854,367.428238 Z M767.902796,405.075376 C769.92515,405.075376 771.564592,403.4395 771.564592,401.421545 C771.564592,399.403589 769.92515,397.767713 767.902796,397.767713 C765.880441,397.767713 764.240999,399.403589 764.240999,401.421545 C764.240999,403.4395 765.880441,405.075376 767.902796,405.075376 Z M778.541313,405.075376 C780.563668,405.075376 782.20311,403.4395 782.20311,401.421545 C782.20311,399.403589 780.563668,397.767713 778.541313,397.767713 C776.518959,397.767713 774.879517,399.403589 774.879517,401.421545 C774.879517,403.4395 776.518959,405.075376 778.541313,405.075376 Z M767.902796,415.713893 C769.92515,415.713893 771.564592,414.078017 771.564592,412.060062 C771.564592,410.042106 769.92515,408.40623 767.902796,408.40623 C765.880441,408.40623 764.240999,410.042106 764.240999,412.060062 C764.240999,414.078017 765.880441,415.713893 767.902796,415.713893 Z M778.541313,415.713893 C780.563668,415.713893 782.20311,414.078017 782.20311,412.060062 C782.20311,410.042106 780.563668,408.40623 778.541313,408.40623 C776.518959,408.40623 774.879517,410.042106 774.879517,412.060062 C774.879517,414.078017 776.518959,415.713893 778.541313,415.713893 Z" id="Rectangle-41" fill="#4990E2" sketch:type="MSShapeGroup"></path>
            <path d="M530.007897,289.304551 L530.007897,305.196657 L590.818815,305.196657 L590.818815,289.304551 L530.007897,289.304551 Z M541.986831,297.400705 L541.986831,302.621173 L569.889957,302.621173 L582.097665,302.621173 L582.097665,297.400705 L541.986831,297.400705 Z" id="Rectangle-57-copy-6" fill="#4990E2" sketch:type="MSShapeGroup"></path>
            <path d="M714.6,239 L701.314113,239 L701.314113,236.527991 L736.167941,236.527991 L736.167941,239 L724.4,239 L722,243 L717,243 L714.6,239 Z M692,223 L692,246.115791 L742.675765,246.115791 L742.675765,223 L692,223 Z M709.314667,226.049004 L708.558819,233.240413 L728.393107,235.325081 L729.148955,228.133671 L709.314667,226.049004 Z" id="Rectangle-71" fill="#4990E2" sketch:type="MSShapeGroup"></path>
            <rect id="Rectangle-42" fill="#4990E2" sketch:type="MSShapeGroup" x="494.546172" y="420.772977" width="11.5948552" height="11.5696352"></rect>
            <rect id="Rectangle-43" fill="#4990E2" sketch:type="MSShapeGroup" x="713.226805" y="416.86073" width="23.1897104" height="23.1392703"></rect>
            <circle id="Oval-146" fill="#4990E2" sketch:type="MSShapeGroup" cx="717" cy="407" r="6"></circle>
            <circle id="Oval-147" fill="#4990E2" sketch:type="MSShapeGroup" cx="778" cy="443" r="6"></circle>
            <path d="M506.548805,412.036851 L506.548805,414.374018 L549.102874,414.374018 L544.469745,381 L506.548805,381 L506.548805,382.900966 L506.548805,382.900966 L499.274402,382.900966 L499.274402,395.09124 L506.548805,395.09124 L506.548805,401.036851 L499.274402,401.036851 L499.274402,412.036851 L506.548805,412.036851 Z M494.546172,377.036851 L494.546172,417.530574 L552.520448,417.530574 L552.520448,377.036851 L494.546172,377.036851 Z" id="Rectangle-51" fill="#4990E2" sketch:type="MSShapeGroup"></path>
            <g id="Rectangle-59-+-Oval-11-+-Rectangle-75" sketch:type="MSLayerGroup" transform="translate(595.000000, 187.000000)" fill="#4990E2">
                <path d="M-0.285426981,0.394019158 L-0.285426981,23.5098097 L34.4636692,23.5098097 L34.4636692,0.394019158 L-0.285426981,0.394019158 Z M5.74928748,2.36411495 L5.74928748,18.2723633 L30.3883548,18.2723633 L30.3883548,2.36411495 L5.74928748,2.36411495 Z" id="Rectangle-59" sketch:type="MSShapeGroup"></path>
                <path d="M13.7287726,16.297865 C16.9306036,16.297865 19.5262002,13.7079142 19.5262002,10.5130475 C19.5262002,7.31818078 16.9306036,4.72822989 13.7287726,4.72822989 C10.5269415,4.72822989 7.93134496,7.31818078 7.93134496,10.5130475 C7.93134496,13.7079142 10.5269415,16.297865 13.7287726,16.297865 Z" id="Oval-11" sketch:type="MSShapeGroup"></path>
                <rect id="Rectangle-75" sketch:type="MSShapeGroup" x="21.1160346" y="5.72822989" width="2.23991521" height="9.09042762"></rect>
            </g>
            <g id="Group" sketch:type="MSLayerGroup" transform="translate(530.000000, 187.000000)" fill="#4990E2">
                <path d="M0.0078965978,0 L0.0078965978,23.1392703 L60.8808864,23.1392703 L60.8808864,0 L0.0078965978,0 Z M9.25315326,2.49617254 L9.25315326,9.62725822 L29.2053831,9.62725822 L29.2053831,2.49617254 L9.25315326,2.49617254 Z M30.2531533,2.49617254 L30.2531533,9.62725822 L50.2053831,9.62725822 L50.2053831,2.49617254 L30.2531533,2.49617254 Z M52.3825403,2 L52.3825403,20.8006571 L58.1799679,20.8006571 L58.1799679,2 L52.3825403,2 Z M2.0078966,2 L2.0078966,20.8006571 L7.8053242,20.8006571 L7.8053242,2 L2.0078966,2 Z" id="Rectangle-61" sketch:type="MSShapeGroup"></path>
            </g>
            <rect id="Rectangle-44" fill="#4990E2" sketch:type="MSShapeGroup" x="617.285969" y="430.755178" width="20.487469" height="20.4429065"></rect>
            <path d="M700.285969,368.755178 L700.285969,389.198085 L720.773437,389.198085 L720.773437,368.755178 L700.285969,368.755178 Z M704.952403,372.277204 L704.952403,378.976631 L711.666434,378.976631 L711.666434,372.277204 L704.952403,372.277204 Z" id="Rectangle-48" fill="#4990E2" sketch:type="MSShapeGroup"></path>
            <path d="M707.140462,197.219804 L707.140462,214.380531 C707.140462,215.302069 708.10469,216.219804 709.049474,216.219804 C713.250448,216.219804 721.390598,216.219804 725.132744,216.219804 C726.606761,216.219804 727.54198,215.110154 727.54198,214.09266 L727.54198,208.555033 C727.54198,204.776624 727.54198,197.219804 727.54198,197.219804 L707.140462,197.219804 Z M708.999932,198.951535 L708.999932,204 L725.68251,204 L725.68251,198.951535 L708.999932,198.951535 Z" id="Rectangle-72" fill="#4990E2" sketch:type="MSShapeGroup" transform="translate(717.317422, 206.953305) rotate(16.000000) translate(-717.317422, -206.953305) "></path>
            <path d="M639,428 L639,451.490503 L685.278572,451.490503 L685.278572,428 L639,428 Z M649.708502,432.672626 C646.666795,432.672626 644.201005,435.142466 644.201005,438.18062 L644.201005,440.37804 C644.201005,443.420021 646.666946,445.886034 649.708502,445.886034 L674.570071,445.886034 C677.611777,445.886034 680.077567,443.416193 680.077567,440.37804 L680.077567,438.18062 C680.077567,435.138639 677.611626,432.672626 674.570071,432.672626 L649.708502,432.672626 Z" id="Rectangle-46" fill="#4990E2" sketch:type="MSShapeGroup"></path>
            <rect id="Rectangle-79" fill="#4990E2" sketch:type="MSShapeGroup" x="765.437892" y="287.904222" width="18.8416397" height="18.8006571"></rect>
            <rect id="Rectangle-53" fill="#4990E2" sketch:type="MSShapeGroup" x="772.057841" y="419.394795" width="12.2216908" height="30.8032893"></rect>
            <path d="M515.5,384.5 L515.5,410.5" id="Line" fill="#4990E2" sketch:type="MSShapeGroup"></path>
            <path d="M498.5,328.5 L498.5,354.5" id="Line-2" fill="#4990E2" sketch:type="MSShapeGroup"></path>
            <path d="M723.285969,328 L697.285969,328" id="Line-3" fill="#4990E2" sketch:type="MSShapeGroup"></path>
            <circle id="Oval-145" fill="#4990E2" sketch:type="MSShapeGroup" cx="561" cy="237" r="18"></circle>
            <path d="M686.938313,388.057583 L686.938313,408.678997 C686.938313,408.678997 681.986724,408.678997 678.537565,408.678997 C675.088406,408.678997 670.41883,406.509414 670.41883,397.876615 C670.41883,389.243816 677.219543,388.057583 679.324955,388.057583 C681.430368,388.057583 686.938313,388.057583 686.938313,388.057583 Z M684,392 L684,405 C684,405 681.453788,405 679.231318,405 C677.008847,405 674,403.632267 674,398.190042 C674,392.747816 678.382048,392 679.738674,392 C681.095299,392 684,392 684,392 Z" id="Path-214" fill="#4990E2" sketch:type="MSShapeGroup"></path>
            <circle id="Oval-148" fill="#4990E2" sketch:type="MSShapeGroup" cx="706.5" cy="441.5" r="1.5"></circle>
            <circle id="Oval-149" fill="#4990E2" sketch:type="MSShapeGroup" cx="680.5" cy="398.5" r="1.5"></circle>
            <rect id="Rectangle-296" stroke="#979797" stroke-width="11" stroke-linejoin="bevel" stroke-dasharray="8" sketch:type="MSShapeGroup" x="352" y="27" width="586" height="586" rx="40"></rect>
            <path d="M432.368,527.904551 L432.984,550.304551 L420.552,550.304551 L420.552,510.656551 L437.968,510.656551 L445.136,531.992551 L445.416,531.992551 L451.632,510.656551 L469.608,510.656551 L469.608,550.304551 L456.672,550.304551 L457.064,528.016551 L456.728,527.960551 L449.336,550.304551 L439.928,550.304551 L432.648,527.904551 L432.368,527.904551 Z M476.328,520.848551 L489.264,520.848551 L489.264,550.304551 L476.328,550.304551 L476.328,520.848551 Z M476.104,512.336551 C476.104,511.440546 476.281332,510.591221 476.636,509.788551 C476.990668,508.98588 477.475997,508.285887 478.092,507.688551 C478.708003,507.091214 479.426663,506.615219 480.248,506.260551 C481.069337,505.905882 481.946662,505.728551 482.88,505.728551 C483.776004,505.728551 484.615996,505.905882 485.4,506.260551 C486.184004,506.615219 486.883997,507.091214 487.5,507.688551 C488.116003,508.285887 488.601332,508.98588 488.956,509.788551 C489.310668,510.591221 489.488,511.440546 489.488,512.336551 C489.488,513.269889 489.310668,514.13788 488.956,514.940551 C488.601332,515.743221 488.116003,516.433881 487.5,517.012551 C486.883997,517.59122 486.184004,518.048549 485.4,518.384551 C484.615996,518.720552 483.776004,518.888551 482.88,518.888551 C481.946662,518.888551 481.069337,518.720552 480.248,518.384551 C479.426663,518.048549 478.708003,517.59122 478.092,517.012551 C477.475997,516.433881 476.990668,515.743221 476.636,514.940551 C476.281332,514.13788 476.104,513.269889 476.104,512.336551 Z M495.256,520.848551 L507.856,520.848551 L507.856,524.096551 L507.968,524.096551 C508.71467,523.013878 509.825326,522.071221 511.3,521.268551 C512.774674,520.46588 514.46399,520.064551 516.368,520.064551 C518.421344,520.064551 520.129327,520.43788 521.492,521.184551 C522.854673,521.931221 523.937329,522.892545 524.74,524.068551 C525.542671,525.244556 526.102665,526.560543 526.42,528.016551 C526.737335,529.472558 526.896,530.928543 526.896,532.384551 L526.896,550.304551 L513.904,550.304551 L513.904,534.624551 C513.904,533.13121 513.670669,532.085887 513.204,531.488551 C512.737331,530.891214 512.037338,530.592551 511.104,530.592551 C510.245329,530.592551 509.545336,530.93788 509.004,531.628551 C508.462664,532.319221 508.192,533.317877 508.192,534.624551 L508.192,550.304551 L495.256,550.304551 L495.256,520.848551 Z M564.976,535.464551 C564.976,538.00323 564.518671,540.261874 563.604,542.240551 C562.689329,544.219227 561.457341,545.889877 559.908,547.252551 C558.358659,548.615224 556.566677,549.651214 554.532,550.360551 C552.497323,551.069887 550.360011,551.424551 548.12,551.424551 C545.917322,551.424551 543.798677,551.069887 541.764,550.360551 C539.729323,549.651214 537.946674,548.615224 536.416,547.252551 C534.885326,545.889877 533.662671,544.219227 532.748,542.240551 C531.833329,540.261874 531.376,538.00323 531.376,535.464551 C531.376,532.963205 531.833329,530.73256 532.748,528.772551 C533.662671,526.812541 534.885326,525.160557 536.416,523.816551 C537.946674,522.472544 539.729323,521.455221 541.764,520.764551 C543.798677,520.07388 545.917322,519.728551 548.12,519.728551 C550.360011,519.728551 552.497323,520.07388 554.532,520.764551 C556.566677,521.455221 558.358659,522.472544 559.908,523.816551 C561.457341,525.160557 562.689329,526.812541 563.604,528.772551 C564.518671,530.73256 564.976,532.963205 564.976,535.464551 Z M548.12,530.592551 C546.701326,530.592551 545.553338,531.077879 544.676,532.048551 C543.798662,533.019222 543.36,534.157877 543.36,535.464551 C543.36,536.845891 543.807996,538.021879 544.704,538.992551 C545.600004,539.963222 546.757326,540.448551 548.176,540.448551 C549.594674,540.448551 550.751996,539.963222 551.648,538.992551 C552.544004,538.021879 552.992,536.845891 552.992,535.464551 C552.992,534.157877 552.534671,533.019222 551.62,532.048551 C550.705329,531.077879 549.538674,530.592551 548.12,530.592551 Z M569.736,520.848551 L582.168,520.848551 L582.168,524.208551 L582.28,524.208551 C582.91467,523.013878 583.857327,522.024554 585.108,521.240551 C586.358673,520.456547 587.823992,520.064551 589.504,520.064551 C590.512005,520.064551 591.33333,520.157883 591.968,520.344551 L590.96,531.320551 C590.549331,531.20855 590.092003,531.124551 589.588,531.068551 C589.083997,531.01255 588.626669,530.984551 588.216,530.984551 C586.535992,530.984551 585.192005,531.469879 584.184,532.440551 C583.175995,533.411222 582.672,534.605877 582.672,536.024551 L582.672,550.304551 L569.736,550.304551 L569.736,520.848551 Z M609.384,510.656551 L622.824,510.656551 L622.824,550.304551 L609.384,550.304551 L609.384,510.656551 Z M630.216,550.304551 L630.216,510.656551 L645,510.656551 C648.136016,510.656551 651.131986,510.964547 653.988,511.580551 C656.844014,512.196554 659.363989,513.260543 661.548,514.772551 C663.732011,516.284558 665.477327,518.291205 666.784,520.792551 C668.090673,523.293896 668.744,526.448532 668.744,530.256551 C668.744,533.728568 668.118673,536.733871 666.868,539.272551 C665.617327,541.81123 663.946677,543.892542 661.856,545.516551 C659.765323,547.140559 657.357347,548.344547 654.632,549.128551 C651.906653,549.912554 649.069348,550.304551 646.12,550.304551 L630.216,550.304551 Z M643.04,521.968551 L643.04,538.880551 L645.504,538.880551 C648.640016,538.880551 651.047992,538.199224 652.728,536.836551 C654.408008,535.473877 655.248,533.243233 655.248,530.144551 C655.248,527.568538 654.408008,525.561891 652.728,524.124551 C651.047992,522.68721 648.808014,521.968551 646.008,521.968551 L643.04,521.968551 Z M685.656,534.176551 C685.656,529.621861 686.34666,525.057907 687.728,520.484551 C689.10934,515.911194 691.199986,511.701903 694,507.856551 L702.568,510.992551 C697.602642,517.861918 695.12,525.589841 695.12,534.176551 C695.12,542.76326 697.602642,550.491183 702.568,557.360551 L694,560.496551 C691.199986,556.651198 689.10934,552.441907 687.728,547.868551 C686.34666,543.295194 685.656,538.73124 685.656,534.176551 Z M721.496,551.424551 C719.890659,551.424551 718.313341,551.284552 716.764,551.004551 C715.214659,550.724549 713.721341,550.313887 712.284,549.772551 C710.846659,549.231215 709.49334,548.596554 708.224,547.868551 C706.95466,547.140547 705.816005,546.328555 704.808,545.432551 L712.928,536.584551 C713.861338,537.592556 715.102659,538.488547 716.652,539.272551 C718.201341,540.056554 719.797325,540.448551 721.44,540.448551 C722.18667,540.448551 722.867997,540.317885 723.484,540.056551 C724.100003,539.795216 724.408,539.309887 724.408,538.600551 C724.408,538.227215 724.305334,537.909885 724.1,537.648551 C723.894666,537.387216 723.530669,537.116552 723.008,536.836551 C722.485331,536.556549 721.766671,536.248552 720.852,535.912551 C719.937329,535.576549 718.78934,535.184553 717.408,534.736551 C716.063993,534.288548 714.776006,533.756554 713.544,533.140551 C712.311994,532.524547 711.220005,531.768555 710.268,530.872551 C709.315995,529.976546 708.560003,528.903223 708,527.652551 C707.439997,526.401878 707.16,524.899226 707.16,523.144551 C707.16,520.680538 707.663995,518.589892 708.672,516.872551 C709.680005,515.155209 710.977325,513.745889 712.564,512.644551 C714.150675,511.543212 715.933323,510.749886 717.912,510.264551 C719.890677,509.779215 721.850657,509.536551 723.792,509.536551 C726.405346,509.536551 729.06532,510.040546 731.772,511.048551 C734.47868,512.056556 736.858656,513.512541 738.912,515.416551 L730.624,523.872551 C729.727996,522.752545 728.626673,521.90322 727.32,521.324551 C726.013327,520.745881 724.837339,520.456551 723.792,520.456551 C722.821328,520.456551 722.037336,520.596549 721.44,520.876551 C720.842664,521.156552 720.544,521.613881 720.544,522.248551 C720.544,522.845887 720.851997,523.293882 721.468,523.592551 C722.084003,523.891219 723.08266,524.264548 724.464,524.712551 C725.882674,525.160553 727.375992,525.683214 728.944,526.280551 C730.512008,526.877887 731.95866,527.652546 733.284,528.604551 C734.60934,529.556555 735.701329,530.72321 736.56,532.104551 C737.418671,533.485891 737.848,535.203207 737.848,537.256551 C737.848,539.645896 737.372005,541.727208 736.42,543.500551 C735.467995,545.273893 734.217341,546.748545 732.668,547.924551 C731.118659,549.100556 729.373343,549.977881 727.432,550.556551 C725.490657,551.13522 723.51201,551.424551 721.496,551.424551 Z M763.048,551.088551 C761.591993,551.088551 760.154674,550.817887 758.736,550.276551 C757.317326,549.735215 756.160004,548.979222 755.264,548.008551 L755.152,548.008551 L755.152,563.744551 L742.328,563.744551 L742.328,520.848551 L754.48,520.848551 L754.48,523.816551 L754.592,523.816551 C755.674672,522.584544 756.981326,521.65122 758.512,521.016551 C760.042674,520.381881 761.535993,520.064551 762.992,520.064551 C765.194678,520.064551 767.135992,520.512546 768.816,521.408551 C770.496008,522.304555 771.895994,523.480543 773.016,524.936551 C774.136006,526.392558 774.98533,528.035208 775.564,529.864551 C776.14267,531.693893 776.432,533.560541 776.432,535.464551 C776.432,537.405894 776.14267,539.309875 775.564,541.176551 C774.98533,543.043227 774.136006,544.713877 773.016,546.188551 C771.895994,547.663225 770.505342,548.848546 768.844,549.744551 C767.182658,550.640555 765.250678,551.088551 763.048,551.088551 Z M764.448,535.464551 C764.448,534.157877 764.037337,533.019222 763.216,532.048551 C762.394663,531.077879 761.200008,530.592551 759.632,530.592551 C758.101326,530.592551 756.878671,531.077879 755.964,532.048551 C755.049329,533.019222 754.592,534.157877 754.592,535.464551 C754.592,536.845891 755.049329,538.021879 755.964,538.992551 C756.878671,539.963222 758.101326,540.448551 759.632,540.448551 C761.200008,540.448551 762.394663,539.972555 763.216,539.020551 C764.037337,538.068546 764.448,536.883224 764.448,535.464551 Z M813.616,535.464551 C813.616,538.00323 813.158671,540.261874 812.244,542.240551 C811.329329,544.219227 810.097341,545.889877 808.548,547.252551 C806.998659,548.615224 805.206677,549.651214 803.172,550.360551 C801.137323,551.069887 799.000011,551.424551 796.76,551.424551 C794.557322,551.424551 792.438677,551.069887 790.404,550.360551 C788.369323,549.651214 786.586674,548.615224 785.056,547.252551 C783.525326,545.889877 782.302671,544.219227 781.388,542.240551 C780.473329,540.261874 780.016,538.00323 780.016,535.464551 C780.016,532.963205 780.473329,530.73256 781.388,528.772551 C782.302671,526.812541 783.525326,525.160557 785.056,523.816551 C786.586674,522.472544 788.369323,521.455221 790.404,520.764551 C792.438677,520.07388 794.557322,519.728551 796.76,519.728551 C799.000011,519.728551 801.137323,520.07388 803.172,520.764551 C805.206677,521.455221 806.998659,522.472544 808.548,523.816551 C810.097341,525.160557 811.329329,526.812541 812.244,528.772551 C813.158671,530.73256 813.616,532.963205 813.616,535.464551 Z M796.76,530.592551 C795.341326,530.592551 794.193338,531.077879 793.316,532.048551 C792.438662,533.019222 792,534.157877 792,535.464551 C792,536.845891 792.447996,538.021879 793.344,538.992551 C794.240004,539.963222 795.397326,540.448551 796.816,540.448551 C798.234674,540.448551 799.391996,539.963222 800.288,538.992551 C801.184004,538.021879 801.632,536.845891 801.632,535.464551 C801.632,534.157877 801.174671,533.019222 800.26,532.048551 C799.345329,531.077879 798.178674,530.592551 796.76,530.592551 Z M831.2,551.088551 C827.242647,551.088551 824.31201,550.239226 822.408,548.540551 C820.50399,546.841875 819.552,544.200568 819.552,540.616551 L819.552,530.088551 L815.408,530.088551 L815.408,520.848551 L819.496,520.848551 L819.496,514.240551 L832.04,514.240551 L832.04,520.848551 L838.424,520.848551 L838.424,530.088551 L832.04,530.088551 L832.04,537.928551 C832.04,539.347224 832.347997,540.308548 832.964,540.812551 C833.580003,541.316553 834.429328,541.568551 835.512,541.568551 C835.922669,541.568551 836.351998,541.531218 836.8,541.456551 C837.248002,541.381884 837.602665,541.307218 837.864,541.232551 L837.864,550.080551 C837.191997,550.379219 836.249339,550.621883 835.036,550.808551 C833.822661,550.995218 832.544007,551.088551 831.2,551.088551 L831.2,551.088551 Z M858.136,534.176551 C858.136,538.73124 857.44534,543.295194 856.064,547.868551 C854.68266,552.441907 852.592014,556.651198 849.792,560.496551 L841.224,557.360551 C846.189358,550.491183 848.672,542.76326 848.672,534.176551 C848.672,525.589841 846.189358,517.861918 841.224,510.992551 L849.792,507.856551 C852.592014,511.701903 854.68266,515.911194 856.064,520.484551 C857.44534,525.057907 858.136,529.621861 858.136,534.176551 L858.136,534.176551 Z" id="Minor-ID-(Spot)" fill="#4990E2" sketch:type="MSShapeGroup"></path>
            <path d="M420.192,102.563149 L420.808,124.963149 L408.376,124.963149 L408.376,85.3151492 L425.792,85.3151492 L432.96,106.651149 L433.24,106.651149 L439.456,85.3151492 L457.432,85.3151492 L457.432,124.963149 L444.496,124.963149 L444.888,102.675149 L444.552,102.619149 L437.16,124.963149 L427.752,124.963149 L420.472,102.563149 L420.192,102.563149 Z M479.72,106.259149 C479.72,105.363145 479.412003,104.700485 478.796,104.271149 C478.179997,103.841814 477.368005,103.627149 476.36,103.627149 C475.165327,103.627149 474.036005,103.879147 472.972,104.383149 C471.907995,104.887152 470.965337,105.475146 470.144,106.147149 L463.704,99.7631492 C465.496009,98.0458073 467.623988,96.7204872 470.088,95.7871492 C472.552012,94.8538112 475.090654,94.3871492 477.704,94.3871492 C480.504014,94.3871492 482.818658,94.7791453 484.648,95.5631492 C486.477342,96.3471531 487.923995,97.429809 488.988,98.8111492 C490.052005,100.192489 490.798665,101.797807 491.228,103.627149 C491.657335,105.456492 491.872,107.397806 491.872,109.451149 L491.872,124.963149 L480.168,124.963149 L480.168,122.611149 L480.056,122.611149 C479.30933,123.731155 478.24534,124.533813 476.864,125.019149 C475.48266,125.504485 474.138673,125.747149 472.832,125.747149 C471.674661,125.747149 470.489339,125.579151 469.276,125.243149 C468.062661,124.907148 466.961338,124.36582 465.972,123.619149 C464.982662,122.872479 464.17067,121.901822 463.536,120.707149 C462.90133,119.512477 462.584,118.037825 462.584,116.283149 C462.584,114.229806 463.115995,112.559156 464.18,111.271149 C465.244005,109.983143 466.597325,108.975153 468.24,108.247149 C469.882675,107.519146 471.721323,107.024484 473.756,106.763149 C475.790677,106.501815 477.778657,106.371149 479.72,106.371149 L479.72,106.259149 Z M479.832,112.755149 C477.92799,112.755149 476.397339,112.96048 475.24,113.371149 C474.082661,113.781818 473.504,114.547144 473.504,115.667149 C473.504,116.077818 473.597332,116.423148 473.784,116.703149 C473.970668,116.983151 474.213332,117.216482 474.512,117.403149 C474.810668,117.589817 475.137332,117.729815 475.492,117.823149 C475.846668,117.916483 476.173332,117.963149 476.472,117.963149 C477.704006,117.963149 478.69333,117.571153 479.44,116.787149 C480.18667,116.003145 480.56,114.995155 480.56,113.763149 L480.56,112.755149 L479.832,112.755149 Z M510.576,124.291149 C510.576,126.195159 510.380002,127.996474 509.988,129.695149 C509.595998,131.393824 508.896005,132.887143 507.888,134.175149 C506.879995,135.463156 505.517342,136.489812 503.8,137.255149 C502.082658,138.020486 499.917346,138.403149 497.304,138.403149 C496.55733,138.403149 495.661339,138.34715 494.616,138.235149 C493.570661,138.123149 492.67467,137.95515 491.928,137.731149 L492.6,127.203149 C493.010669,127.31515 493.393332,127.389816 493.748,127.427149 C494.102668,127.464483 494.410665,127.483149 494.672,127.483149 C495.642672,127.483149 496.379997,127.212485 496.884,126.671149 C497.388003,126.129813 497.64,125.205822 497.64,123.899149 L497.64,95.5071492 L510.576,95.5071492 L510.576,124.291149 Z M497.416,86.9951492 C497.416,86.0991447 497.593332,85.2498199 497.948,84.4471492 C498.302668,83.6444785 498.787997,82.9444855 499.404,82.3471492 C500.020003,81.7498129 500.738663,81.2738177 501.56,80.9191492 C502.381337,80.5644808 503.239996,80.3871492 504.136,80.3871492 C505.032004,80.3871492 505.881329,80.5644808 506.684,80.9191492 C507.486671,81.2738177 508.195997,81.7498129 508.812,82.3471492 C509.428003,82.9444855 509.913332,83.6444785 510.268,84.4471492 C510.622668,85.2498199 510.8,86.0991447 510.8,86.9951492 C510.8,87.9284872 510.622668,88.7964785 510.268,89.5991492 C509.913332,90.4018199 509.428003,91.0924797 508.812,91.6711492 C508.195997,92.2498188 507.486671,92.7071475 506.684,93.0431492 C505.881329,93.3791509 505.032004,93.5471492 504.136,93.5471492 C503.239996,93.5471492 502.381337,93.3791509 501.56,93.0431492 C500.738663,92.7071475 500.020003,92.2498188 499.404,91.6711492 C498.787997,91.0924797 498.302668,90.4018199 497.948,89.5991492 C497.593332,88.7964785 497.416,87.9284872 497.416,86.9951492 Z M548.992,110.123149 C548.992,112.661829 548.534671,114.920473 547.62,116.899149 C546.705329,118.877826 545.473341,120.548476 543.924,121.911149 C542.374659,123.273823 540.582677,124.309812 538.548,125.019149 C536.513323,125.728486 534.376011,126.083149 532.136,126.083149 C529.933322,126.083149 527.814677,125.728486 525.78,125.019149 C523.745323,124.309812 521.962674,123.273823 520.432,121.911149 C518.901326,120.548476 517.678671,118.877826 516.764,116.899149 C515.849329,114.920473 515.392,112.661829 515.392,110.123149 C515.392,107.621803 515.849329,105.391159 516.764,103.431149 C517.678671,101.471139 518.901326,99.8191559 520.432,98.4751492 C521.962674,97.1311425 523.745323,96.1138193 525.78,95.4231492 C527.814677,94.7324791 529.933322,94.3871492 532.136,94.3871492 C534.376011,94.3871492 536.513323,94.7324791 538.548,95.4231492 C540.582677,96.1138193 542.374659,97.1311425 543.924,98.4751492 C545.473341,99.8191559 546.705329,101.471139 547.62,103.431149 C548.534671,105.391159 548.992,107.621803 548.992,110.123149 Z M532.136,105.251149 C530.717326,105.251149 529.569338,105.736478 528.692,106.707149 C527.814662,107.677821 527.376,108.816476 527.376,110.123149 C527.376,111.504489 527.823996,112.680478 528.72,113.651149 C529.616004,114.621821 530.773326,115.107149 532.192,115.107149 C533.610674,115.107149 534.767996,114.621821 535.664,113.651149 C536.560004,112.680478 537.008,111.504489 537.008,110.123149 C537.008,108.816476 536.550671,107.677821 535.636,106.707149 C534.721329,105.736478 533.554674,105.251149 532.136,105.251149 Z M553.752,95.5071492 L566.184,95.5071492 L566.184,98.8671492 L566.296,98.8671492 C566.93067,97.6724766 567.873327,96.6831531 569.124,95.8991492 C570.374673,95.1151453 571.839992,94.7231492 573.52,94.7231492 C574.528005,94.7231492 575.34933,94.8164816 575.984,95.0031492 L574.976,105.979149 C574.565331,105.867149 574.108003,105.783149 573.604,105.727149 C573.099997,105.671149 572.642669,105.643149 572.232,105.643149 C570.551992,105.643149 569.208005,106.128478 568.2,107.099149 C567.191995,108.069821 566.688,109.264475 566.688,110.683149 L566.688,124.963149 L553.752,124.963149 L553.752,95.5071492 Z M593.4,85.3151492 L606.84,85.3151492 L606.84,124.963149 L593.4,124.963149 L593.4,85.3151492 Z M614.232,124.963149 L614.232,85.3151492 L629.016,85.3151492 C632.152016,85.3151492 635.147986,85.6231461 638.004,86.2391492 C640.860014,86.8551523 643.379989,87.9191417 645.564,89.4311492 C647.748011,90.9431568 649.493327,92.9498034 650.8,95.4511492 C652.106673,97.9524951 652.76,101.10713 652.76,104.915149 C652.76,108.387167 652.134673,111.39247 650.884,113.931149 C649.633327,116.469829 647.962677,118.551141 645.872,120.175149 C643.781323,121.799157 641.373347,123.003145 638.648,123.787149 C635.922653,124.571153 633.085348,124.963149 630.136,124.963149 L614.232,124.963149 Z M627.056,96.6271492 L627.056,113.539149 L629.52,113.539149 C632.656016,113.539149 635.063992,112.857823 636.744,111.495149 C638.424008,110.132476 639.264,107.901831 639.264,104.803149 C639.264,102.227136 638.424008,100.22049 636.744,98.7831492 C635.063992,97.3458087 632.824014,96.6271492 630.024,96.6271492 L627.056,96.6271492 Z M669.672,108.835149 C669.672,104.28046 670.36266,99.7165054 671.744,95.1431492 C673.12534,90.569793 675.215986,86.3605018 678.016,82.5151492 L686.584,85.6511492 C681.618642,92.5205169 679.136,100.24844 679.136,108.835149 C679.136,117.421859 681.618642,125.149782 686.584,132.019149 L678.016,135.155149 C675.215986,131.309797 673.12534,127.100505 671.744,122.527149 C670.36266,117.953793 669.672,113.389839 669.672,108.835149 Z M692.52,85.3151492 L709.6,85.3151492 C711.541343,85.3151492 713.473324,85.5111473 715.396,85.9031492 C717.318676,86.2951512 719.035992,86.9858109 720.548,87.9751492 C722.060008,88.9644875 723.282662,90.2898076 724.216,91.9511492 C725.149338,93.6124909 725.616,95.6938034 725.616,98.1951492 C725.616,100.621828 725.018673,102.75914 723.824,104.607149 C722.629327,106.455158 720.912011,107.883144 718.672,108.891149 L728.752,124.963149 L713.408,124.963149 L705.792,110.795149 L705.4,110.795149 L705.4,124.963149 L692.52,124.963149 L692.52,85.3151492 Z M705.288,102.059149 L707.92,102.059149 C708.368002,102.059149 708.862664,102.021816 709.404,101.947149 C709.945336,101.872482 710.449331,101.713817 710.916,101.471149 C711.382669,101.228481 711.774665,100.892485 712.092,100.463149 C712.409335,100.033814 712.568,99.4644861 712.568,98.7551492 C712.568,98.0458123 712.437335,97.4858179 712.176,97.0751492 C711.914665,96.6644805 711.578669,96.3564836 711.168,96.1511492 C710.757331,95.9458149 710.309336,95.8151495 709.824,95.7591492 C709.338664,95.7031489 708.890669,95.6751492 708.48,95.6751492 L705.288,95.6751492 L705.288,102.059149 Z M763.528,110.123149 C763.528,112.661829 763.070671,114.920473 762.156,116.899149 C761.241329,118.877826 760.009341,120.548476 758.46,121.911149 C756.910659,123.273823 755.118677,124.309812 753.084,125.019149 C751.049323,125.728486 748.912011,126.083149 746.672,126.083149 C744.469322,126.083149 742.350677,125.728486 740.316,125.019149 C738.281323,124.309812 736.498674,123.273823 734.968,121.911149 C733.437326,120.548476 732.214671,118.877826 731.3,116.899149 C730.385329,114.920473 729.928,112.661829 729.928,110.123149 C729.928,107.621803 730.385329,105.391159 731.3,103.431149 C732.214671,101.471139 733.437326,99.8191559 734.968,98.4751492 C736.498674,97.1311425 738.281323,96.1138193 740.316,95.4231492 C742.350677,94.7324791 744.469322,94.3871492 746.672,94.3871492 C748.912011,94.3871492 751.049323,94.7324791 753.084,95.4231492 C755.118677,96.1138193 756.910659,97.1311425 758.46,98.4751492 C760.009341,99.8191559 761.241329,101.471139 762.156,103.431149 C763.070671,105.391159 763.528,107.621803 763.528,110.123149 Z M746.672,105.251149 C745.253326,105.251149 744.105338,105.736478 743.228,106.707149 C742.350662,107.677821 741.912,108.816476 741.912,110.123149 C741.912,111.504489 742.359996,112.680478 743.256,113.651149 C744.152004,114.621821 745.309326,115.107149 746.728,115.107149 C748.146674,115.107149 749.303996,114.621821 750.2,113.651149 C751.096004,112.680478 751.544,111.504489 751.544,110.123149 C751.544,108.816476 751.086671,107.677821 750.172,106.707149 C749.257329,105.736478 748.090674,105.251149 746.672,105.251149 Z M800.712,110.123149 C800.712,112.661829 800.254671,114.920473 799.34,116.899149 C798.425329,118.877826 797.193341,120.548476 795.644,121.911149 C794.094659,123.273823 792.302677,124.309812 790.268,125.019149 C788.233323,125.728486 786.096011,126.083149 783.856,126.083149 C781.653322,126.083149 779.534677,125.728486 777.5,125.019149 C775.465323,124.309812 773.682674,123.273823 772.152,121.911149 C770.621326,120.548476 769.398671,118.877826 768.484,116.899149 C767.569329,114.920473 767.112,112.661829 767.112,110.123149 C767.112,107.621803 767.569329,105.391159 768.484,103.431149 C769.398671,101.471139 770.621326,99.8191559 772.152,98.4751492 C773.682674,97.1311425 775.465323,96.1138193 777.5,95.4231492 C779.534677,94.7324791 781.653322,94.3871492 783.856,94.3871492 C786.096011,94.3871492 788.233323,94.7324791 790.268,95.4231492 C792.302677,96.1138193 794.094659,97.1311425 795.644,98.4751492 C797.193341,99.8191559 798.425329,101.471139 799.34,103.431149 C800.254671,105.391159 800.712,107.621803 800.712,110.123149 Z M783.856,105.251149 C782.437326,105.251149 781.289338,105.736478 780.412,106.707149 C779.534662,107.677821 779.096,108.816476 779.096,110.123149 C779.096,111.504489 779.543996,112.680478 780.44,113.651149 C781.336004,114.621821 782.493326,115.107149 783.912,115.107149 C785.330674,115.107149 786.487996,114.621821 787.384,113.651149 C788.280004,112.680478 788.728,111.504489 788.728,110.123149 C788.728,108.816476 788.270671,107.677821 787.356,106.707149 C786.441329,105.736478 785.274674,105.251149 783.856,105.251149 Z M823.504,124.963149 L823.504,109.507149 C823.504,108.013808 823.317335,106.931153 822.944,106.259149 C822.570665,105.587146 821.954671,105.251149 821.096,105.251149 C820.46133,105.251149 819.85467,105.549813 819.276,106.147149 C818.69733,106.744486 818.408,107.808475 818.408,109.339149 L818.408,124.963149 L805.472,124.963149 L805.472,95.5071492 L818.072,95.5071492 L818.072,98.7551492 L818.184,98.7551492 C818.557335,98.2698135 819.014664,97.7938182 819.556,97.3271492 C820.097336,96.8604802 820.71333,96.4311512 821.404,96.0391492 C822.09467,95.6471473 822.869329,95.3298171 823.728,95.0871492 C824.586671,94.8444813 825.519995,94.7231492 826.528,94.7231492 C828.469343,94.7231492 830.149326,95.0684791 831.568,95.7591492 C832.986674,96.4498193 834.106663,97.5231419 834.928,98.9791492 C835.898672,97.7844766 837.093326,96.7764867 838.512,95.9551492 C839.930674,95.1338118 841.722656,94.7231492 843.888,94.7231492 C845.978677,94.7231492 847.705327,95.1338118 849.068,95.9551492 C850.430673,96.7764867 851.513329,97.8031431 852.316,99.0351492 C853.118671,100.267155 853.678665,101.601809 853.996,103.039149 C854.313335,104.47649 854.472,105.811143 854.472,107.043149 L854.472,124.963149 L841.536,124.963149 L841.536,109.283149 C841.536,107.677808 841.340002,106.604485 840.948,106.063149 C840.555998,105.521813 839.949337,105.251149 839.128,105.251149 C838.38133,105.251149 837.746669,105.596479 837.224,106.287149 C836.701331,106.977819 836.44,107.995142 836.44,109.339149 L836.44,124.963149 L823.504,124.963149 Z M876.312,108.835149 C876.312,113.389839 875.62134,117.953793 874.24,122.527149 C872.85866,127.100505 870.768014,131.309797 867.968,135.155149 L859.4,132.019149 C864.365358,125.149782 866.848,117.421859 866.848,108.835149 C866.848,100.24844 864.365358,92.5205169 859.4,85.6511492 L867.968,82.5151492 C870.768014,86.3605018 872.85866,90.569793 874.24,95.1431492 C875.62134,99.7165054 876.312,104.28046 876.312,108.835149 L876.312,108.835149 Z" id="Major-ID-(Room)" fill="#50E3C2" sketch:type="MSShapeGroup"></path>
            <path d="M993.888,334.936 L983.024,334.936 L983.024,350 L969.696,350 L969.696,310.352 L982.968,310.352 L982.968,323.792 L993.832,323.792 L993.832,310.352 L1007.216,310.352 L1007.216,350 L993.888,350 L993.888,334.936 Z M1046.304,335.16 C1046.304,337.698679 1045.84667,339.957323 1044.932,341.936 C1044.01733,343.914677 1042.78534,345.585327 1041.236,346.948 C1039.68666,348.310673 1037.89468,349.346663 1035.86,350.056 C1033.82532,350.765337 1031.68801,351.12 1029.448,351.12 C1027.24532,351.12 1025.12668,350.765337 1023.092,350.056 C1021.05732,349.346663 1019.27467,348.310673 1017.744,346.948 C1016.21333,345.585327 1014.99067,343.914677 1014.076,341.936 C1013.16133,339.957323 1012.704,337.698679 1012.704,335.16 C1012.704,332.658654 1013.16133,330.42801 1014.076,328.468 C1014.99067,326.50799 1016.21333,324.856007 1017.744,323.512 C1019.27467,322.167993 1021.05732,321.15067 1023.092,320.46 C1025.12668,319.76933 1027.24532,319.424 1029.448,319.424 C1031.68801,319.424 1033.82532,319.76933 1035.86,320.46 C1037.89468,321.15067 1039.68666,322.167993 1041.236,323.512 C1042.78534,324.856007 1044.01733,326.50799 1044.932,328.468 C1045.84667,330.42801 1046.304,332.658654 1046.304,335.16 Z M1029.448,330.288 C1028.02933,330.288 1026.88134,330.773328 1026.004,331.744 C1025.12666,332.714672 1024.688,333.853327 1024.688,335.16 C1024.688,336.54134 1025.136,337.717328 1026.032,338.688 C1026.928,339.658672 1028.08533,340.144 1029.504,340.144 C1030.92267,340.144 1032.08,339.658672 1032.976,338.688 C1033.872,337.717328 1034.32,336.54134 1034.32,335.16 C1034.32,333.853327 1033.86267,332.714672 1032.948,331.744 C1032.03333,330.773328 1030.86667,330.288 1029.448,330.288 Z M1069.096,350 L1069.096,334.544 C1069.096,333.050659 1068.90934,331.968003 1068.536,331.296 C1068.16266,330.623997 1067.54667,330.288 1066.688,330.288 C1066.05333,330.288 1065.44667,330.586664 1064.868,331.184 C1064.28933,331.781336 1064,332.845326 1064,334.376 L1064,350 L1051.064,350 L1051.064,320.544 L1063.664,320.544 L1063.664,323.792 L1063.776,323.792 C1064.14934,323.306664 1064.60666,322.830669 1065.148,322.364 C1065.68934,321.897331 1066.30533,321.468002 1066.996,321.076 C1067.68667,320.683998 1068.46133,320.366668 1069.32,320.124 C1070.17867,319.881332 1071.11199,319.76 1072.12,319.76 C1074.06134,319.76 1075.74133,320.10533 1077.16,320.796 C1078.57867,321.48667 1079.69866,322.559993 1080.52,324.016 C1081.49067,322.821327 1082.68533,321.813337 1084.104,320.992 C1085.52267,320.170663 1087.31466,319.76 1089.48,319.76 C1091.57068,319.76 1093.29733,320.170663 1094.66,320.992 C1096.02267,321.813337 1097.10533,322.839994 1097.908,324.072 C1098.71067,325.304006 1099.27067,326.638659 1099.588,328.076 C1099.90533,329.513341 1100.064,330.847994 1100.064,332.08 L1100.064,350 L1087.128,350 L1087.128,334.32 C1087.128,332.714659 1086.932,331.641336 1086.54,331.1 C1086.148,330.558664 1085.54134,330.288 1084.72,330.288 C1083.97333,330.288 1083.33867,330.63333 1082.816,331.324 C1082.29333,332.01467 1082.032,333.031993 1082.032,334.376 L1082.032,350 L1069.096,350 Z M1136.464,335.552 C1136.464,336.037336 1136.45467,336.531997 1136.436,337.036 C1136.41733,337.540003 1136.38933,337.959998 1136.352,338.296 L1116.528,338.296 C1116.56533,338.818669 1116.74267,339.285331 1117.06,339.696 C1117.37733,340.106669 1117.76933,340.461332 1118.236,340.76 C1118.70267,341.058668 1119.22533,341.282666 1119.804,341.432 C1120.38267,341.581334 1120.97066,341.656 1121.568,341.656 C1122.76267,341.656 1123.76133,341.441335 1124.564,341.012 C1125.36667,340.582665 1125.97333,340.106669 1126.384,339.584 L1135.568,344.232 C1134.26133,346.360011 1132.36668,348.039994 1129.884,349.272 C1127.40132,350.504006 1124.51735,351.12 1121.232,351.12 C1119.10399,351.12 1117.03201,350.784003 1115.016,350.112 C1112.99999,349.439997 1111.21734,348.44134 1109.668,347.116 C1108.11866,345.79066 1106.87734,344.138677 1105.944,342.16 C1105.01066,340.181323 1104.544,337.885346 1104.544,335.272 C1104.544,332.845321 1104.97333,330.65201 1105.832,328.692 C1106.69067,326.73199 1107.85733,325.070673 1109.332,323.708 C1110.80667,322.345327 1112.54266,321.29067 1114.54,320.544 C1116.53734,319.79733 1118.67466,319.424 1120.952,319.424 C1123.26668,319.424 1125.37599,319.825329 1127.28,320.628 C1129.18401,321.430671 1130.81733,322.550659 1132.18,323.988 C1133.54267,325.425341 1134.59733,327.133323 1135.344,329.112 C1136.09067,331.090677 1136.464,333.237322 1136.464,335.552 Z M1125.32,331.352 C1125.32,330.306661 1124.93734,329.448003 1124.172,328.776 C1123.40666,328.103997 1122.37067,327.768 1121.064,327.768 C1119.64533,327.768 1118.544,328.159996 1117.76,328.944 C1116.976,329.728004 1116.528,330.530663 1116.416,331.352 L1125.32,331.352 Z" id="Home" fill="#979797" sketch:type="MSShapeGroup"></path>
        </g>
    </g>
</svg>