<?xml version="1.0" encoding="UTF-8" standalone="no"?>
<svg width="1279px" height="640px" viewBox="0 0 1279 640" version="1.1" xmlns="http://www.w3.org/2000/svg" xmlns:xlink="http://www.w3.org/1999/xlink" xmlns:sketch="http://www.bohemiancoding.com/sketch/ns">
    <!-- Generator: Sketch 3.0.1 (7597) - http://www.bohemiancoding.com/sketch -->
    <title>Open_iBeacon_Credentials</title>
    <description>Created with Sketch.</description>
    <defs></defs>
    <g id="Page-1" stroke="none" stroke-width="1" fill="none" fill-rule="evenodd" sketch:type="MSPage">
        <g id="Open_iBeacon_Credentials" sketch:type="MSArtboardGroup">
            <g id="Walls-3" sketch:type="MSLayerGroup" transform="translate(484.000000, 178.000000)" stroke="#50E3C2" stroke-width="11">
                <rect id="Rectangle-3" sketch:type="MSShapeGroup" x="0" y="0" width="308" height="280"></rect>
                <rect id="Rectangle-3" sketch:type="MSShapeGroup" x="0" y="0" width="190" height="136"></rect>
                <rect id="Rectangle-3" sketch:type="MSShapeGroup" x="0" y="136" width="126" height="144"></rect>
                <rect id="Rectangle-3" sketch:type="MSShapeGroup" x="208" y="183" width="100" height="97"></rect>
                <rect id="Rectangle-3" sketch:type="MSShapeGroup" x="126" y="183" width="82" height="97"></rect>
                <rect id="Rectangle-3" sketch:type="MSShapeGroup" x="189" y="0" width="119" height="136"></rect>
            </g>
            <path d="M762.238854,367.428238 L762.238854,417.99403 L785.404918,417.99403 L785.404918,367.428238 L762.238854,367.428238 Z M767.902796,405.075376 C769.92515,405.075376 771.564592,403.4395 771.564592,401.421545 C771.564592,399.403589 769.92515,397.767713 767.902796,397.767713 C765.880441,397.767713 764.240999,399.403589 764.240999,401.421545 C764.240999,403.4395 765.880441,405.075376 767.902796,405.075376 Z M778.541313,405.075376 C780.563668,405.075376 782.20311,403.4395 782.20311,401.421545 C782.20311,399.403589 780.563668,397.767713 778.541313,397.767713 C776.518959,397.767713 774.879517,399.403589 774.879517,401.421545 C774.879517,403.4395 776.518959,405.075376 778.541313,405.075376 Z M767.902796,415.713893 C769.92515,415.713893 771.564592,414.078017 771.564592,412.060062 C771.564592,410.042106 769.92515,408.40623 767.902796,408.40623 C765.880441,408.40623 764.240999,410.042106 764.240999,412.060062 C764.240999,414.078017 765.880441,415.713893 767.902796,415.713893 Z M778.541313,415.713893 C780.563668,415.713893 782.20311,414.078017 782.20311,412.060062 C782.20311,410.042106 780.563668,408.40623 778.541313,408.40623 C776.518959,408.40623 774.879517,410.042106 774.879517,412.060062 C774.879517,414.078017 776.518959,415.713893 778.541313,415.713893 Z" id="Rectangle-41" fill="#4990E2" sketch:type="MSShapeGroup"></path>
            <path d="M530.007897,289.304551 L530.007897,305.196657 L590.818815,305.196657 L590.818815,289.304551 L530.007897,289.304551 Z M541.986831,297.400705 L541.986831,302.621173 L569.889957,302.621173 L582.097665,302.621173 L582.097665,297.400705 L541.986831,297.400705 Z" id="Rectangle-57-copy-6" fill="#4990E2" sketch:type="MSShapeGroup"></path>
            <path d="M714.6,239 L701.314113,239 L701.314113,236.527991 L736.167941,236.527991 L736.167941,239 L724.4,239 L722,243 L717,243 L714.6,239 Z M692,223 L692,246.115791 L742.675765,246.115791 L742.675765,223 L692,223 Z M709.314667,226.049004 L708.558819,233.240413 L728.393107,235.325081 L729.148955,228.133671 L709.314667,226.049004 Z" id="Rectangle-71" fill="#4990E2" sketch:type="MSShapeGroup"></path>
            <rect id="Rectangle-42" fill="#4990E2" sketch:type="MSShapeGroup" x="494.546172" y="420.772977" width="11.5948552" height="11.5696352"></rect>
            <rect id="Rectangle-43" fill="#4990E2" sketch:type="MSShapeGroup" x="713.226805" y="416.86073" width="23.1897104" height="23.1392703"></rect>
            <circle id="Oval-146" fill="#4990E2" sketch:type="MSShapeGroup" cx="717" cy="407" r="6"></circle>
            <circle id="Oval-147" fill="#4990E2" sketch:type="MSShapeGroup" cx="778" cy="443" r="6"></circle>
            <path d="M506.548805,412.036851 L506.548805,414.374018 L549.102874,414.374018 L544.469745,381 L506.548805,381 L506.548805,382.900966 L506.548805,382.900966 L499.274402,382.900966 L499.274402,395.09124 L506.548805,395.09124 L506.548805,401.036851 L499.274402,401.036851 L499.274402,412.036851 L506.548805,412.036851 Z M494.546172,377.036851 L494.546172,417.530574 L552.520448,417.530574 L552.520448,377.036851 L494.546172,377.036851 Z" id="Rectangle-51" fill="#4990E2" sketch:type="MSShapeGroup"></path>
            <g id="Rectangle-59-+-Oval-11-+-Rectangle-75" sketch:type="MSLayerGroup" transform="translate(595.000000, 187.000000)" fill="#4990E2">
                <path d="M-0.285426981,0.394019158 L-0.285426981,23.5098097 L34.4636692,23.5098097 L34.4636692,0.394019158 L-0.285426981,0.394019158 Z M5.74928748,2.36411495 L5.74928748,18.2723633 L30.3883548,18.2723633 L30.3883548,2.36411495 L5.74928748,2.36411495 Z" id="Rectangle-59" sketch:type="MSShapeGroup"></path>
                <path d="M13.7287726,16.297865 C16.9306036,16.297865 19.5262002,13.7079142 19.5262002,10.5130475 C19.5262002,7.31818078 16.9306036,4.72822989 13.7287726,4.72822989 C10.5269415,4.72822989 7.93134496,7.31818078 7.93134496,10.5130475 C7.93134496,13.7079142 10.5269415,16.297865 13.7287726,16.297865 Z" id="Oval-11" sketch:type="MSShapeGroup"></path>
                <rect id="Rectangle-75" sketch:type="MSShapeGroup" x="21.1160346" y="5.72822989" width="2.23991521" height="9.09042762"></rect>
            </g>
            <g id="Group" sketch:type="MSLayerGroup" transform="translate(530.000000, 187.000000)" fill="#4990E2">
                <path d="M0.0078965978,0 L0.0078965978,23.1392703 L60.8808864,23.1392703 L60.8808864,0 L0.0078965978,0 Z M9.25315326,2.49617254 L9.25315326,9.62725822 L29.2053831,9.62725822 L29.2053831,2.49617254 L9.25315326,2.49617254 Z M30.2531533,2.49617254 L30.2531533,9.62725822 L50.2053831,9.62725822 L50.2053831,2.49617254 L30.2531533,2.49617254 Z M52.3825403,2 L52.3825403,20.8006571 L58.1799679,20.8006571 L58.1799679,2 L52.3825403,2 Z M2.0078966,2 L2.0078966,20.8006571 L7.8053242,20.8006571 L7.8053242,2 L2.0078966,2 Z" id="Rectangle-61" sketch:type="MSShapeGroup"></path>
            </g>
            <rect id="Rectangle-44" fill="#4990E2" sketch:type="MSShapeGroup" x="617.285969" y="430.755178" width="20.487469" height="20.4429065"></rect>
            <path d="M700.285969,368.755178 L700.285969,389.198085 L720.773437,389.198085 L720.773437,368.755178 L700.285969,368.755178 Z M704.952403,372.277204 L704.952403,378.976631 L711.666434,378.976631 L711.666434,372.277204 L704.952403,372.277204 Z" id="Rectangle-48" fill="#4990E2" sketch:type="MSShapeGroup"></path>
            <path d="M707.140462,197.219804 L707.140462,214.380531 C707.140462,215.302069 708.10469,216.219804 709.049474,216.219804 C713.250448,216.219804 721.390598,216.219804 725.132744,216.219804 C726.606761,216.219804 727.54198,215.110154 727.54198,214.09266 L727.54198,208.555033 C727.54198,204.776624 727.54198,197.219804 727.54198,197.219804 L707.140462,197.219804 Z M708.999932,198.951535 L708.999932,204 L725.68251,204 L725.68251,198.951535 L708.999932,198.951535 Z" id="Rectangle-72" fill="#4990E2" sketch:type="MSShapeGroup" transform="translate(717.317422, 206.953305) rotate(16.000000) translate(-717.317422, -206.953305) "></path>
            <path d="M639,428 L639,451.490503 L685.278572,451.490503 L685.278572,428 L639,428 Z M649.708502,432.672626 C646.666795,432.672626 644.201005,435.142466 644.201005,438.18062 L644.201005,440.37804 C644.201005,443.420021 646.666946,445.886034 649.708502,445.886034 L674.570071,445.886034 C677.611777,445.886034 680.077567,443.416193 680.077567,440.37804 L680.077567,438.18062 C680.077567,435.138639 677.611626,432.672626 674.570071,432.672626 L649.708502,432.672626 Z" id="Rectangle-46" fill="#4990E2" sketch:type="MSShapeGroup"></path>
            <rect id="Rectangle-79" fill="#4990E2" sketch:type="MSShapeGroup" x="765.437892" y="287.904222" width="18.8416397" height="18.8006571"></rect>
            <rect id="Rectangle-53" fill="#4990E2" sketch:type="MSShapeGroup" x="772.057841" y="419.394795" width="12.2216908" height="30.8032893"></rect>
            <path d="M515.5,384.5 L515.5,410.5" id="Line" fill="#4990E2" sketch:type="MSShapeGroup"></path>
            <path d="M498.5,328.5 L498.5,354.5" id="Line-2" fill="#4990E2" sketch:type="MSShapeGroup"></path>
            <path d="M723.285969,328 L697.285969,328" id="Line-3" fill="#4990E2" sketch:type="MSShapeGroup"></path>
            <circle id="Oval-145" fill="#4990E2" sketch:type="MSShapeGroup" cx="561" cy="237" r="18"></circle>
            <path d="M686.938313,388.057583 L686.938313,408.678997 C686.938313,408.678997 681.986724,408.678997 678.537565,408.678997 C675.088406,408.678997 670.41883,406.509414 670.41883,397.876615 C670.41883,389.243816 677.219543,388.057583 679.324955,388.057583 C681.430368,388.057583 686.938313,388.057583 686.938313,388.057583 Z M684,392 L684,405 C684,405 681.453788,405 679.231318,405 C677.008847,405 674,403.632267 674,398.190042 C674,392.747816 678.382048,392 679.738674,392 C681.095299,392 684,392 684,392 Z" id="Path-214" fill="#4990E2" sketch:type="MSShapeGroup"></path>
            <circle id="Oval-148" fill="#4990E2" sketch:type="MSShapeGroup" cx="706.5" cy="441.5" r="1.5"></circle>
            <circle id="Oval-149" fill="#4990E2" sketch:type="MSShapeGroup" cx="680.5" cy="398.5" r="1.5"></circle>
            <text id="Major-ID-(Room)" sketch:type="MSTextLayer" font-family="Avenir Next" font-size="56" font-weight="686" sketch:alignment="middle" fill="#50E3C2">
                <tspan x="404.68" y="124.963149">Major ID (Room)</tspan>
            </text>
            <rect id="Rectangle-296" stroke="#979797" stroke-width="11" stroke-linejoin="bevel" stroke-dasharray="8" sketch:type="MSShapeGroup" x="352" y="27" width="586" height="586" rx="40"></rect>
            <text id="Home" sketch:type="MSTextLayer" font-family="Avenir Next" font-size="56" font-weight="686" fill="#979797">
                <tspan x="966" y="350">Home</tspan>
            </text>
            <path d="M432.368,527.904551 L432.984,550.304551 L420.552,550.304551 L420.552,510.656551 L437.968,510.656551 L445.136,531.992551 L445.416,531.992551 L451.632,510.656551 L469.608,510.656551 L469.608,550.304551 L456.672,550.304551 L457.064,528.016551 L456.728,527.960551 L449.336,550.304551 L439.928,550.304551 L432.648,527.904551 L432.368,527.904551 Z M476.328,520.848551 L489.264,520.848551 L489.264,550.304551 L476.328,550.304551 L476.328,520.848551 Z M476.104,512.336551 C476.104,511.440546 476.281332,510.591221 476.636,509.788551 C476.990668,508.98588 477.475997,508.285887 478.092,507.688551 C478.708003,507.091214 479.426663,506.615219 480.248,506.260551 C481.069337,505.905882 481.946662,505.728551 482.88,505.728551 C483.776004,505.728551 484.615996,505.905882 485.4,506.260551 C486.184004,506.615219 486.883997,507.091214 487.5,507.688551 C488.116003,508.285887 488.601332,508.98588 488.956,509.788551 C489.310668,510.591221 489.488,511.440546 489.488,512.336551 C489.488,513.269889 489.310668,514.13788 488.956,514.940551 C488.601332,515.743221 488.116003,516.433881 487.5,517.012551 C486.883997,517.59122 486.184004,518.048549 485.4,518.384551 C484.615996,518.720552 483.776004,518.888551 482.88,518.888551 C481.946662,518.888551 481.069337,518.720552 480.248,518.384551 C479.426663,518.048549 478.708003,517.59122 478.092,517.012551 C477.475997,516.433881 476.990668,515.743221 476.636,514.940551 C476.281332,514.13788 476.104,513.269889 476.104,512.336551 Z M495.256,520.848551 L507.856,520.848551 L507.856,524.096551 L507.968,524.096551 C508.71467,523.013878 509.825326,522.071221 511.3,521.268551 C512.774674,520.46588 514.46399,520.064551 516.368,520.064551 C518.421344,520.064551 520.129327,520.43788 521.492,521.184551 C522.854673,521.931221 523.937329,522.892545 524.74,524.068551 C525.542671,525.244556 526.102665,526.560543 526.42,528.016551 C526.737335,529.472558 526.896,530.928543 526.896,532.384551 L526.896,550.304551 L513.904,550.304551 L513.904,534.624551 C513.904,533.13121 513.670669,532.085887 513.204,531.488551 C512.737331,530.891214 512.037338,530.592551 511.104,530.592551 C510.245329,530.592551 509.545336,530.93788 509.004,531.628551 C508.462664,532.319221 508.192,533.317877 508.192,534.624551 L508.192,550.304551 L495.256,550.304551 L495.256,520.848551 Z M564.976,535.464551 C564.976,538.00323 564.518671,540.261874 563.604,542.240551 C562.689329,544.219227 561.457341,545.889877 559.908,547.252551 C558.358659,548.615224 556.566677,549.651214 554.532,550.360551 C552.497323,551.069887 550.360011,551.424551 548.12,551.424551 C545.917322,551.424551 543.798677,551.069887 541.764,550.360551 C539.729323,549.651214 537.946674,548.615224 536.416,547.252551 C534.885326,545.889877 533.662671,544.219227 532.748,542.240551 C531.833329,540.261874 531.376,538.00323 531.376,535.464551 C531.376,532.963205 531.833329,530.73256 532.748,528.772551 C533.662671,526.812541 534.885326,525.160557 536.416,523.816551 C537.946674,522.472544 539.729323,521.455221 541.764,520.764551 C543.798677,520.07388 545.917322,519.728551 548.12,519.728551 C550.360011,519.728551 552.497323,520.07388 554.532,520.764551 C556.566677,521.455221 558.358659,522.472544 559.908,523.816551 C561.457341,525.160557 562.689329,526.812541 563.604,528.772551 C564.518671,530.73256 564.976,532.963205 564.976,535.464551 Z M548.12,530.592551 C546.701326,530.592551 545.553338,531.077879 544.676,532.048551 C543.798662,533.019222 543.36,534.157877 543.36,535.464551 C543.36,536.845891 543.807996,538.021879 544.704,538.992551 C545.600004,539.963222 546.757326,540.448551 548.176,540.448551 C549.594674,540.448551 550.751996,539.963222 551.648,538.992551 C552.544004,538.021879 552.992,536.845891 552.992,535.464551 C552.992,534.157877 552.534671,533.019222 551.62,532.048551 C550.705329,531.077879 549.538674,530.592551 548.12,530.592551 Z M569.736,520.848551 L582.168,520.848551 L582.168,524.208551 L582.28,524.208551 C582.91467,523.013878 583.857327,522.024554 585.108,521.240551 C586.358673,520.456547 587.823992,520.064551 589.504,520.064551 C590.512005,520.064551 591.33333,520.157883 591.968,520.344551 L590.96,531.320551 C590.549331,531.20855 590.092003,531.124551 589.588,531.068551 C589.083997,531.01255 588.626669,530.984551 588.216,530.984551 C586.535992,530.984551 585.192005,531.469879 584.184,532.440551 C583.175995,533.411222 582.672,534.605877 582.672,536.024551 L582.672,550.304551 L569.736,550.304551 L569.736,520.848551 Z M609.384,510.656551 L622.824,510.656551 L622.824,550.304551 L609.384,550.304551 L609.384,510.656551 Z M630.216,550.304551 L630.216,510.656551 L645,510.656551 C648.136016,510.656551 651.131986,510.964547 653.988,511.580551 C656.844014,512.196554 659.363989,513.260543 661.548,514.772551 C663.732011,516.284558 665.477327,518.291205 666.784,520.792551 C668.090673,523.293896 668.744,526.448532 668.744,530.256551 C668.744,533.728568 668.118673,536.733871 666.868,539.272551 C665.617327,541.81123 663.946677,543.892542 661.856,545.516551 C659.765323,547.140559 657.357347,548.344547 654.632,549.128551 C651.906653,549.912554 649.069348,550.304551 646.12,550.304551 L630.216,550.304551 Z M643.04,521.968551 L643.04,538.880551 L645.504,538.880551 C648.640016,538.880551 651.047992,538.199224 652.728,536.836551 C654.408008,535.473877 655.248,533.243233 655.248,530.144551 C655.248,527.568538 654.408008,525.561891 652.728,524.124551 C651.047992,522.68721 648.808014,521.968551 646.008,521.968551 L643.04,521.968551 Z M685.656,534.176551 C685.656,529.621861 686.34666,525.057907 687.728,520.484551 C689.10934,515.911194 691.199986,511.701903 694,507.856551 L702.568,510.992551 C697.602642,517.861918 695.12,525.589841 695.12,534.176551 C695.12,542.76326 697.602642,550.491183 702.568,557.360551 L694,560.496551 C691.199986,556.651198 689.10934,552.441907 687.728,547.868551 C686.34666,543.295194 685.656,538.73124 685.656,534.176551 Z M721.496,551.424551 C719.890659,551.424551 718.313341,551.284552 716.764,551.004551 C715.214659,550.724549 713.721341,550.313887 712.284,549.772551 C710.846659,549.231215 709.49334,548.596554 708.224,547.868551 C706.95466,547.140547 705.816005,546.328555 704.808,545.432551 L712.928,536.584551 C713.861338,537.592556 715.102659,538.488547 716.652,539.272551 C718.201341,540.056554 719.797325,540.448551 721.44,540.448551 C722.18667,540.448551 722.867997,540.317885 723.484,540.056551 C724.100003,539.795216 724.408,539.309887 724.408,538.600551 C724.408,538.227215 724.305334,537.909885 724.1,537.648551 C723.894666,537.387216 723.530669,537.116552 723.008,536.836551 C722.485331,536.556549 721.766671,536.248552 720.852,535.912551 C719.937329,535.576549 718.78934,535.184553 717.408,534.736551 C716.063993,534.288548 714.776006,533.756554 713.544,533.140551 C712.311994,532.524547 711.220005,531.768555 710.268,530.872551 C709.315995,529.976546 708.560003,528.903223 708,527.652551 C707.439997,526.401878 707.16,524.899226 707.16,523.144551 C707.16,520.680538 707.663995,518.589892 708.672,516.872551 C709.680005,515.155209 710.977325,513.745889 712.564,512.644551 C714.150675,511.543212 715.933323,510.749886 717.912,510.264551 C719.890677,509.779215 721.850657,509.536551 723.792,509.536551 C726.405346,509.536551 729.06532,510.040546 731.772,511.048551 C734.47868,512.056556 736.858656,513.512541 738.912,515.416551 L730.624,523.872551 C729.727996,522.752545 728.626673,521.90322 727.32,521.324551 C726.013327,520.745881 724.837339,520.456551 723.792,520.456551 C722.821328,520.456551 722.037336,520.596549 721.44,520.876551 C720.842664,521.156552 720.544,521.613881 720.544,522.248551 C720.544,522.845887 720.851997,523.293882 721.468,523.592551 C722.084003,523.891219 723.08266,524.264548 724.464,524.712551 C725.882674,525.160553 727.375992,525.683214 728.944,526.280551 C730.512008,526.877887 731.95866,527.652546 733.284,528.604551 C734.60934,529.556555 735.701329,530.72321 736.56,532.104551 C737.418671,533.485891 737.848,535.203207 737.848,537.256551 C737.848,539.645896 737.372005,541.727208 736.42,543.500551 C735.467995,545.273893 734.217341,546.748545 732.668,547.924551 C731.118659,549.100556 729.373343,549.977881 727.432,550.556551 C725.490657,551.13522 723.51201,551.424551 721.496,551.424551 Z M763.048,551.088551 C761.591993,551.088551 760.154674,550.817887 758.736,550.276551 C757.317326,549.735215 756.160004,548.979222 755.264,548.008551 L755.152,548.008551 L755.152,563.744551 L742.328,563.744551 L742.328,520.848551 L754.48,520.848551 L754.48,523.816551 L754.592,523.816551 C755.674672,522.584544 756.981326,521.65122 758.512,521.016551 C760.042674,520.381881 761.535993,520.064551 762.992,520.064551 C765.194678,520.064551 767.135992,520.512546 768.816,521.408551 C770.496008,522.304555 771.895994,523.480543 773.016,524.936551 C774.136006,526.392558 774.98533,528.035208 775.564,529.864551 C776.14267,531.693893 776.432,533.560541 776.432,535.464551 C776.432,537.405894 776.14267,539.309875 775.564,541.176551 C774.98533,543.043227 774.136006,544.713877 773.016,546.188551 C771.895994,547.663225 770.505342,548.848546 768.844,549.744551 C767.182658,550.640555 765.250678,551.088551 763.048,551.088551 Z M764.448,535.464551 C764.448,534.157877 764.037337,533.019222 763.216,532.048551 C762.394663,531.077879 761.200008,530.592551 759.632,530.592551 C758.101326,530.592551 756.878671,531.077879 755.964,532.048551 C755.049329,533.019222 754.592,534.157877 754.592,535.464551 C754.592,536.845891 755.049329,538.021879 755.964,538.992551 C756.878671,539.963222 758.101326,540.448551 759.632,540.448551 C761.200008,540.448551 762.394663,539.972555 763.216,539.020551 C764.037337,538.068546 764.448,536.883224 764.448,535.464551 Z M813.616,535.464551 C813.616,538.00323 813.158671,540.261874 812.244,542.240551 C811.329329,544.219227 810.097341,545.889877 808.548,547.252551 C806.998659,548.615224 805.206677,549.651214 803.172,550.360551 C801.137323,551.069887 799.000011,551.424551 796.76,551.424551 C794.557322,551.424551 792.438677,551.069887 790.404,550.360551 C788.369323,549.651214 786.586674,548.615224 785.056,547.252551 C783.525326,545.889877 782.302671,544.219227 781.388,542.240551 C780.473329,540.261874 780.016,538.00323 780.016,535.464551 C780.016,532.963205 780.473329,530.73256 781.388,528.772551 C782.302671,526.812541 783.525326,525.160557 785.056,523.816551 C786.586674,522.472544 788.369323,521.455221 790.404,520.764551 C792.438677,520.07388 794.557322,519.728551 796.76,519.728551 C799.000011,519.728551 801.137323,520.07388 803.172,520.764551 C805.206677,521.455221 806.998659,522.472544 808.548,523.816551 C810.097341,525.160557 811.329329,526.812541 812.244,528.772551 C813.158671,530.73256 813.616,532.963205 813.616,535.464551 Z M796.76,530.592551 C795.341326,530.592551 794.193338,531.077879 793.316,532.048551 C792.438662,533.019222 792,534.157877 792,535.464551 C792,536.845891 792.447996,538.021879 793.344,538.992551 C794.240004,539.963222 795.397326,540.448551 796.816,540.448551 C798.234674,540.448551 799.391996,539.963222 800.288,538.992551 C801.184004,538.021879 801.632,536.845891 801.632,535.464551 C801.632,534.157877 801.174671,533.019222 800.26,532.048551 C799.345329,531.077879 798.178674,530.592551 796.76,530.592551 Z M831.2,551.088551 C827.242647,551.088551 824.31201,550.239226 822.408,548.540551 C820.50399,546.841875 819.552,544.200568 819.552,540.616551 L819.552,530.088551 L815.408,530.088551 L815.408,520.848551 L819.496,520.848551 L819.496,514.240551 L832.04,514.240551 L832.04,520.848551 L838.424,520.848551 L838.424,530.088551 L832.04,530.088551 L832.04,537.928551 C832.04,539.347224 832.347997,540.308548 832.964,540.812551 C833.580003,541.316553 834.429328,541.568551 835.512,541.568551 C835.922669,541.568551 836.351998,541.531218 836.8,541.456551 C837.248002,541.381884 837.602665,541.307218 837.864,541.232551 L837.864,550.080551 C837.191997,550.379219 836.249339,550.621883 835.036,550.808551 C833.822661,550.995218 832.544007,551.088551 831.2,551.088551 L831.2,551.088551 Z M858.136,534.176551 C858.136,538.73124 857.44534,543.295194 856.064,547.868551 C854.68266,552.441907 852.592014,556.651198 849.792,560.496551 L841.224,557.360551 C846.189358,550.491183 848.672,542.76326 848.672,534.176551 C848.672,525.589841 846.189358,517.861918 841.224,510.992551 L849.792,507.856551 C852.592014,511.701903 854.68266,515.911194 856.064,520.484551 C857.44534,525.057907 858.136,529.621861 858.136,534.176551 L858.136,534.176551 Z" id="Minor-ID-(Spot)" fill="#4990E2" sketch:type="MSShapeGroup"></path>
        </g>
    </g>
</svg>